<svg xmlns="http://www.w3.org/2000/svg" viewBox="0 0 1482.37 4867.65"><defs><style>.cls-1,.cls-5{fill:none;stroke:#fff;stroke-miterlimit:10;}.cls-1{stroke-width:10px;}.cls-2{fill:#575553;}.cls-3{fill:#423f3c;}.cls-4{fill:#8e8a86;}.cls-5{stroke-width:30px;}</style></defs><g id="objects"><path class="cls-1" d="M1523.62,4105.55a733.05,733.05,0,0,1,146.52-446.22c113.91-152.12,178.25-335.59,178.25-525.63v-24.1a162.38,162.38,0,0,1,162.39-162.39h498a162.39,162.39,0,0,1,162.39,162.39v16c0,193.65,64.82,380.83,180.2,536.35A732.94,732.94,0,0,1,2996,4100.2c0,408.37-332.52,739.09-741.57,736.16C1853.67,4833.5,1526.47,4506.28,1523.62,4105.55Z" transform="translate(-1518.6 26.26)"/><rect class="cls-2" x="1924.17" y="2849.77" width="671.23" height="97.44" rx="6" transform="translate(3000.97 5823.24) rotate(-180)"/><rect class="cls-2" x="1924.17" y="2752.33" width="671.23" height="97.44" rx="6" transform="translate(3000.97 5628.37) rotate(-180)"/><rect class="cls-2" x="1924.17" y="2654.9" width="671.23" height="97.44" rx="6" transform="translate(3000.97 5433.5) rotate(-180)"/><rect class="cls-2" x="1924.17" y="2557.46" width="671.23" height="97.44" rx="6" transform="translate(3000.97 5238.62) rotate(-180)"/><path class="cls-2" d="M2065.7,2460h388.16c30.56,0,58.92,14.5,74.86,38.29l39.61,59.14H1951.24l39.61-59.14C2006.79,2474.53,2035.14,2460,2065.7,2460Z" transform="translate(-1518.6 26.26)"/><path class="cls-2" d="M2188.53,2368H2331c35.31,0,68.22,15.92,87.41,42.27l36.21,49.76H2064.91l36.22-49.76C2120.31,2383.92,2153.22,2368,2188.53,2368Z" transform="translate(-1518.6 26.26)"/><path class="cls-3" d="M2064.91,2460l36.21-49.75c19.22-26.36,52.08-42.28,87.43-42.28H2331c26.74,0,52,9.1,71.07,25a115,115,0,0,0-44-8.72H2215.61c-35.35,0-68.2,15.92-87.42,42.28L2103.78,2460Z" transform="translate(-1518.6 26.26)"/><path class="cls-3" d="M1924.17,2914.73v-32.48a32.5,32.5,0,0,1,32.48-32.48h606.27a32.51,32.51,0,0,1,32.48,32.48v4.38a31.78,31.78,0,0,0-16.24-4.38H1972.89a32.5,32.5,0,0,0-32.48,32.48v28.09A32.39,32.39,0,0,1,1924.17,2914.73Z" transform="translate(-1518.6 26.26)"/><path class="cls-3" d="M1924.17,2817.29v-32.48a32.5,32.5,0,0,1,32.48-32.48h606.27a32.51,32.51,0,0,1,32.48,32.48v4.39a31.69,31.69,0,0,0-16.24-4.39H1972.89a32.5,32.5,0,0,0-32.48,32.48v28.09A32.38,32.38,0,0,1,1924.17,2817.29Z" transform="translate(-1518.6 26.26)"/><path class="cls-3" d="M1924.17,2719.85v-32.47a32.5,32.5,0,0,1,32.48-32.48h606.27a32.51,32.51,0,0,1,32.48,32.48v4.38a31.78,31.78,0,0,0-16.24-4.38H1972.89a32.5,32.5,0,0,0-32.48,32.47V2748A32.41,32.41,0,0,1,1924.17,2719.85Z" transform="translate(-1518.6 26.26)"/><path class="cls-3" d="M1924.17,2622.42v-32.48a32.5,32.5,0,0,1,32.48-32.48h606.27a32.51,32.51,0,0,1,32.48,32.48v4.38a31.78,31.78,0,0,0-16.24-4.38H1972.89a32.5,32.5,0,0,0-32.48,32.48v28.09A32.38,32.38,0,0,1,1924.17,2622.42Z" transform="translate(-1518.6 26.26)"/><path class="cls-3" d="M1951.24,2557.46l39.62-59.11c15.91-23.82,44.28-38.32,74.86-38.32h388.12c30.59,0,58.95,14.5,74.87,38.32l.54.76a101.25,101.25,0,0,0-36.11-6.61H2091.38c-31.67,0-61,14.51-77.52,38.33l-18.45,26.63Z" transform="translate(-1518.6 26.26)"/><rect class="cls-4" x="2438.42" y="2909.31" width="135.33" height="21.65" rx="2" transform="translate(3493.56 5866.54) rotate(-180)"/><rect class="cls-4" x="2438.42" y="2811.88" width="135.33" height="21.65" rx="2" transform="translate(3493.56 5671.67) rotate(-180)"/><rect class="cls-4" x="2438.42" y="2714.44" width="135.33" height="21.65" rx="2" transform="translate(3493.56 5476.8) rotate(-180)"/><rect class="cls-4" x="2438.42" y="2617.01" width="135.33" height="21.65" rx="2" transform="translate(3493.56 5281.93) rotate(-180)"/><rect class="cls-4" x="2384.28" y="2519.57" width="135.33" height="21.65" rx="2" transform="translate(3385.3 5087.06) rotate(-180)"/><rect class="cls-4" x="2276.02" y="2427.55" width="135.33" height="21.65" rx="2" transform="translate(3168.77 4903.01) rotate(-180)"/><line class="cls-5" x1="741.18" x2="741.18" y2="2410.51"/></g></svg>