<svg width="30" height="31" viewBox="0 0 30 31" fill="none" xmlns="http://www.w3.org/2000/svg">
<g clip-path="url(#clip0_794_2654)">
<path fill-rule="evenodd" clip-rule="evenodd" d="M18.7504 0.5L30 11.7496V28.1667C30 29.4553 28.9553 30.5 27.6667 30.5H2.33334C1.04467 30.5 0 29.4553 0 28.1667V2.83334C0 1.54467 1.04467 0.5 2.33334 0.5H18.7504Z" fill="#F2F2F2"/>
<path d="M18.75 11.75L30 11.75L18.75 0.5L18.75 11.75Z" fill="#BDBDBD"/>
<rect x="1.875" y="15.5" width="26.25" height="12.1875" rx="1.28336" fill="#EF4444"/>
<path d="M6.29584 25.1104V18.0791H8.88449C9.4148 18.0791 9.85973 18.1798 10.2193 18.3812C10.581 18.5826 10.8541 18.8596 11.0383 19.2121C11.2248 19.5623 11.3181 19.9605 11.3181 20.4068C11.3181 20.8577 11.2248 21.2583 11.0383 21.6085C10.8518 21.9586 10.5766 22.2345 10.2125 22.4359C9.84849 22.635 9.4002 22.7346 8.86764 22.7346H7.15198V21.6874H8.6991C9.0092 21.6874 9.26312 21.6325 9.46087 21.5226C9.65861 21.4128 9.80467 21.2617 9.89905 21.0694C9.99568 20.8772 10.044 20.6563 10.044 20.4068C10.044 20.1573 9.99568 19.9376 9.89905 19.7477C9.80467 19.5577 9.65749 19.41 9.4575 19.3048C9.25975 19.1972 9.00471 19.1434 8.69236 19.1434H7.54635V25.1104H6.29584Z" fill="white"/>
<path d="M14.7435 25.1104H12.4043V18.0791H14.7907C15.4761 18.0791 16.0648 18.2199 16.5569 18.5014C17.0513 18.7806 17.431 19.1823 17.6962 19.7065C17.9613 20.2306 18.0939 20.8577 18.0939 21.5879C18.0939 22.3203 17.9602 22.9497 17.6928 23.4761C17.4277 24.0026 17.0445 24.4065 16.5434 24.6881C16.0446 24.9696 15.4446 25.1104 14.7435 25.1104ZM13.6548 24.0083H14.6828C15.1637 24.0083 15.5648 23.919 15.8862 23.7405C16.2075 23.5597 16.449 23.2907 16.6108 22.9337C16.7726 22.5743 16.8535 22.1257 16.8535 21.5879C16.8535 21.05 16.7726 20.6037 16.6108 20.2489C16.449 19.8918 16.2097 19.6252 15.8929 19.449C15.5783 19.2704 15.1873 19.1812 14.7199 19.1812H13.6548V24.0083Z" fill="white"/>
<path d="M19.2821 25.1104V18.0791H23.7044V19.1468H20.5326V21.0557H23.401V22.1234H20.5326V25.1104H19.2821Z" fill="white"/>
<path d="M6.29584 25.1104V18.0791H8.88449C9.4148 18.0791 9.85973 18.1798 10.2193 18.3812C10.581 18.5826 10.8541 18.8596 11.0383 19.2121C11.2248 19.5623 11.3181 19.9605 11.3181 20.4068C11.3181 20.8577 11.2248 21.2583 11.0383 21.6085C10.8518 21.9586 10.5766 22.2345 10.2125 22.4359C9.84849 22.635 9.4002 22.7346 8.86764 22.7346H7.15198V21.6874H8.6991C9.0092 21.6874 9.26312 21.6325 9.46087 21.5226C9.65861 21.4128 9.80467 21.2617 9.89905 21.0694C9.99568 20.8772 10.044 20.6563 10.044 20.4068C10.044 20.1573 9.99568 19.9376 9.89905 19.7477C9.80467 19.5577 9.65749 19.41 9.4575 19.3048C9.25975 19.1972 9.00471 19.1434 8.69236 19.1434H7.54635V25.1104H6.29584Z" stroke="white" stroke-width="0.583334"/>
<path d="M14.7435 25.1104H12.4043V18.0791H14.7907C15.4761 18.0791 16.0648 18.2199 16.5569 18.5014C17.0513 18.7806 17.431 19.1823 17.6962 19.7065C17.9613 20.2306 18.0939 20.8577 18.0939 21.5879C18.0939 22.3203 17.9602 22.9497 17.6928 23.4761C17.4277 24.0026 17.0445 24.4065 16.5434 24.6881C16.0446 24.9696 15.4446 25.1104 14.7435 25.1104ZM13.6548 24.0083H14.6828C15.1637 24.0083 15.5648 23.919 15.8862 23.7405C16.2075 23.5597 16.449 23.2907 16.6108 22.9337C16.7726 22.5743 16.8535 22.1257 16.8535 21.5879C16.8535 21.05 16.7726 20.6037 16.6108 20.2489C16.449 19.8918 16.2097 19.6252 15.8929 19.449C15.5783 19.2704 15.1873 19.1812 14.7199 19.1812H13.6548V24.0083Z" stroke="white" stroke-width="0.583334"/>
<path d="M19.2821 25.1104V18.0791H23.7044V19.1468H20.5326V21.0557H23.401V22.1234H20.5326V25.1104H19.2821Z" stroke="white" stroke-width="0.583334"/>
</g>
<defs>
<clipPath id="clip0_794_2654">
<rect y="0.5" width="30" height="30" rx="1.16667" fill="white"/>
</clipPath>
</defs>
</svg>
