<svg width="166" height="43" viewBox="0 0 166 43" fill="none" xmlns="http://www.w3.org/2000/svg">
<circle cx="144.357" cy="21.5" r="21.5" fill="white"/>
<path d="M144.358 12.9732C147.136 12.9732 147.465 12.9836 148.562 13.0336C149.222 13.0417 149.875 13.1629 150.494 13.3918C150.943 13.5649 151.351 13.83 151.691 14.1701C152.031 14.5102 152.296 14.9177 152.469 15.3664C152.698 15.9852 152.819 16.6387 152.827 17.2985C152.877 18.3958 152.887 18.7247 152.887 21.5024C152.887 24.28 152.877 24.609 152.827 25.7062C152.819 26.366 152.698 27.0195 152.469 27.6383C152.296 28.087 152.031 28.4946 151.691 28.8346C151.351 29.1747 150.943 29.4398 150.494 29.6129C149.875 29.8419 149.222 29.963 148.562 29.9711C147.465 30.0206 147.136 30.0315 144.358 30.0315C141.58 30.0315 141.251 30.0211 140.154 29.9711C139.495 29.963 138.841 29.8419 138.222 29.6129C137.774 29.4398 137.366 29.1747 137.026 28.8346C136.686 28.4946 136.421 28.087 136.248 27.6383C136.019 27.0195 135.898 26.366 135.89 25.7062C135.84 24.609 135.829 24.28 135.829 21.5024C135.829 18.7247 135.84 18.3958 135.89 17.2985C135.898 16.6387 136.019 15.9852 136.248 15.3664C136.421 14.9177 136.686 14.5102 137.026 14.1701C137.366 13.83 137.774 13.5649 138.222 13.3918C138.841 13.1629 139.495 13.0417 140.154 13.0336C141.252 12.9841 141.581 12.9732 144.358 12.9732ZM144.358 11.0986C141.535 11.0986 141.179 11.1105 140.069 11.1611C139.206 11.1782 138.351 11.3417 137.543 11.6446C136.849 11.906 136.221 12.3156 135.701 12.8449C135.172 13.3642 134.762 13.993 134.5 14.6873C134.197 15.496 134.034 16.3503 134.017 17.2137C133.967 18.3224 133.955 18.6781 133.955 21.5019C133.955 24.3256 133.967 24.6813 134.017 25.791C134.035 26.6544 134.198 27.5087 134.501 28.3175C134.762 29.0116 135.172 29.6404 135.701 30.1598C136.221 30.6892 136.85 31.0989 137.544 31.3602C138.352 31.663 139.207 31.8265 140.07 31.8437C141.18 31.8932 141.534 31.9061 144.359 31.9061C147.185 31.9061 147.539 31.8942 148.648 31.8437C149.512 31.8265 150.366 31.663 151.175 31.3602C151.866 31.0924 152.493 30.6833 153.017 30.1592C153.541 29.6351 153.949 29.0075 154.217 28.3165C154.519 27.5077 154.683 26.6534 154.7 25.79C154.75 24.6813 154.762 24.3256 154.762 21.5019C154.762 18.6781 154.75 18.3224 154.699 17.2128C154.682 16.3493 154.518 15.495 154.216 14.6863C153.954 13.9921 153.545 13.3634 153.015 12.8439C152.496 12.3145 151.867 11.9048 151.173 11.6436C150.364 11.3407 149.51 11.1772 148.646 11.1601C147.538 11.1105 147.182 11.0986 144.358 11.0986Z" fill="black"/>
<path d="M144.36 16.1621C143.304 16.1621 142.271 16.4754 141.392 17.0625C140.514 17.6495 139.829 18.4838 139.425 19.46C139.02 20.4362 138.915 21.5103 139.121 22.5466C139.327 23.5829 139.836 24.5349 140.583 25.282C141.33 26.0291 142.282 26.5379 143.318 26.7441C144.354 26.9502 145.429 26.8444 146.405 26.4401C147.381 26.0357 148.215 25.351 148.802 24.4724C149.389 23.5939 149.703 22.561 149.703 21.5044C149.703 20.0875 149.14 18.7287 148.138 17.7268C147.136 16.725 145.777 16.1621 144.36 16.1621ZM144.36 24.9722C143.675 24.9722 143.004 24.7688 142.434 24.3877C141.864 24.0067 141.419 23.4651 141.157 22.8315C140.894 22.1978 140.825 21.5006 140.959 20.8279C141.093 20.1552 141.423 19.5373 141.908 19.0523C142.393 18.5674 143.011 18.2371 143.684 18.1033C144.357 17.9695 145.054 18.0382 145.687 18.3006C146.321 18.5631 146.863 19.0076 147.244 19.5778C147.625 20.1481 147.828 20.8186 147.828 21.5044C147.828 22.4241 147.463 23.3061 146.812 23.9565C146.162 24.6068 145.28 24.9722 144.36 24.9722Z" fill="black"/>
<path d="M149.913 17.1979C150.602 17.1979 151.161 16.639 151.161 15.9496C151.161 15.2601 150.602 14.7012 149.913 14.7012C149.223 14.7012 148.665 15.2601 148.665 15.9496C148.665 16.639 149.223 17.1979 149.913 17.1979Z" fill="black"/>
<circle cx="82.9287" cy="21.5" r="21.5" fill="white"/>
<path d="M80.9458 31.1806V22.6519H78.0757V19.3281H80.9458V16.8769C80.9458 14.0323 82.6831 12.4834 85.2207 12.4834C86.4362 12.4834 87.4809 12.5739 87.7854 12.6143V15.5871L86.0254 15.5879C84.6453 15.5879 84.3781 16.2437 84.3781 17.206V19.3281H87.6695L87.2409 22.6519H84.3781V31.1806H80.9458Z" fill="black"/>
<circle cx="21.5" cy="21.5" r="21.5" fill="white"/>
<path d="M31.0325 16.8666C30.389 17.1526 29.7098 17.3313 28.9948 17.4386C29.7098 17.0096 30.2818 16.3303 30.532 15.5081C29.8528 15.9013 29.102 16.1873 28.2798 16.3661C27.6363 15.6868 26.7068 15.2578 25.7058 15.2578C23.7753 15.2578 22.2023 16.8308 22.2023 18.7613C22.2023 19.0473 22.238 19.2976 22.3095 19.5478C19.4138 19.4048 16.8041 18.0106 15.0523 15.8656C14.7663 16.4018 14.5876 16.9738 14.5876 17.6173C14.5876 18.8328 15.1953 19.9053 16.1606 20.5488C15.5886 20.5131 15.0523 20.3701 14.5518 20.1198V20.1556C14.5518 21.8715 15.7673 23.3015 17.376 23.6233C17.0901 23.6948 16.7683 23.7305 16.4466 23.7305C16.2321 23.7305 15.9818 23.6948 15.7673 23.659C16.2321 25.0533 17.519 26.09 19.0563 26.09C17.8408 27.0195 16.3393 27.5915 14.6948 27.5915C14.4088 27.5915 14.1228 27.5915 13.8726 27.5558C15.4456 28.5568 17.2688 29.1288 19.2708 29.1288C25.7415 29.1288 29.2808 23.7663 29.2808 19.1188C29.2808 18.9758 29.2808 18.7971 29.2808 18.6541C29.96 18.1893 30.5678 17.5816 31.0325 16.8666Z" fill="black"/>
</svg>
