<svg width="26" height="20" viewBox="0 0 26 20" fill="none" xmlns="http://www.w3.org/2000/svg">
<path d="M5.90911 19.4665V9.44066L2.79368 6.59611L0 5.01758V17.6972C0 18.6762 0.794727 19.4665 1.77277 19.4665H5.90911Z" fill="#4285F4"/>
<path d="M20.0908 19.4664H24.2272C25.2081 19.4664 25.9999 18.6731 25.9999 17.6971V5.01758L22.8356 6.82559L20.0908 9.44056V19.4664Z" fill="#34A853"/>
<path d="M5.90927 9.44015L5.48535 5.52276L5.90927 1.77344L13.0002 7.08122L20.0911 1.77344L20.5653 5.32034L20.0911 9.44015L13.0002 14.7479L5.90927 9.44015Z" fill="#EA4335"/>
<path d="M20.0908 1.77423V9.44094L25.9999 5.01786V2.65883C25.9999 0.470903 23.4974 -0.776373 21.7455 0.535775L20.0908 1.77423Z" fill="#FBBC04"/>
<path d="M0 5.0179L2.71771 7.05226L5.90911 9.44099V1.77428L4.25445 0.535821C2.49945 -0.776428 0 0.470949 0 2.65877V5.0178V5.0179Z" fill="#C5221F"/>
</svg>
