<svg width="24" height="24" viewBox="0 0 24 24" fill="none" xmlns="http://www.w3.org/2000/svg">
<path d="M9.8184 16.5957C9.62314 16.4005 9.62313 16.0839 9.8184 15.8886L14.7681 10.9389C14.9634 10.7436 15.28 10.7436 15.4753 10.9389L16.1824 11.646C16.3776 11.8413 16.3776 12.1578 16.1824 12.3531L11.2326 17.3028C11.0373 17.4981 10.7208 17.4981 10.5255 17.3028L9.8184 16.5957Z" fill="white"/>
<path d="M15.4746 13.038C15.2794 13.2333 14.9628 13.2333 14.7675 13.038L9.81779 8.0883C9.62253 7.89304 9.62253 7.57646 9.81779 7.3812L10.5249 6.67409C10.7202 6.47883 11.0367 6.47883 11.232 6.67409L16.1818 11.6238C16.377 11.8191 16.377 12.1357 16.1818 12.3309L15.4746 13.038Z" fill="white"/>
</svg>
