<svg width="986" height="1734" viewBox="0 0 986 1734" fill="none" xmlns="http://www.w3.org/2000/svg">
<path d="M95.01 426.563C179.746 521.296 237.542 623.916 262.515 713.214C287.508 802.581 279.554 878.264 233.363 919.581C187.172 960.898 111.073 960.397 25.0346 925.633C-60.937 890.897 -156.504 822.061 -241.24 727.328C-325.976 632.595 -383.772 529.975 -408.745 440.677C-433.738 351.31 -425.784 275.626 -379.593 234.31C-333.401 192.993 -257.302 193.494 -171.264 228.257C-85.2925 262.994 10.274 331.83 95.01 426.563Z" stroke="#FFB71E" stroke-opacity="0.28" stroke-width="2"/>
<path d="M230.327 522.285C353.852 660.384 443.167 805.488 487.734 928.421C510.018 989.89 521.096 1045.77 519.703 1092.42C518.31 1139.08 504.454 1176.43 476.974 1201.01C449.493 1225.59 410.839 1235.21 364.317 1231.41C317.792 1227.62 263.492 1210.4 204.878 1181.43C87.6558 1123.48 -46.6308 1018.6 -170.156 880.506C-293.682 742.407 -382.996 597.303 -427.563 474.37C-449.847 412.901 -460.925 357.025 -459.532 310.366C-458.139 263.71 -444.284 226.364 -416.803 201.784C-389.322 177.203 -350.669 167.581 -304.147 171.378C-257.622 175.176 -203.322 192.391 -144.708 221.365C-27.4851 279.309 106.801 384.186 230.327 522.285Z" stroke="#FFB71E" stroke-opacity="0.28" stroke-width="2"/>
<path d="M411.665 641.928C569.996 818.938 685.12 1004.37 743.279 1161.05C772.36 1239.39 787.179 1310.49 786.069 1369.73C784.959 1428.97 767.928 1476.24 733.423 1507.1C698.917 1537.97 650.046 1549.64 591.051 1544.17C532.055 1538.69 463.039 1516.07 388.411 1478.46C239.163 1403.26 67.6653 1268.26 -90.6652 1091.25C-248.996 914.238 -364.12 728.807 -422.279 572.13C-451.36 493.788 -466.179 422.686 -465.069 363.446C-463.959 304.209 -446.928 256.936 -412.423 226.072C-377.917 195.208 -329.046 183.532 -270.051 189.009C-211.055 194.485 -142.039 217.109 -67.4114 254.711C81.8373 329.911 253.335 464.918 411.665 641.928Z" stroke="#FFB71E" stroke-opacity="0.28" stroke-width="2"/>
</svg>
