<svg width="100" height="111" viewBox="0 0 100 111" fill="none" xmlns="http://www.w3.org/2000/svg">
<path d="M57.0566 61.3249C58.2102 63.3222 59.1286 64.9459 60.0683 66.4427C62.0157 69.3847 64.1683 72.1722 65.6389 75.4753C65.9 76.0509 66.3178 76.397 66.6465 76.9206C67.6073 78.2913 68.5001 79.7133 69.4142 81.0084C70.2809 82.2292 71.2161 83.3981 72.2237 84.8434C72.0027 85.4521 71.6926 86.2393 71.2883 86.8767C70.6373 87.922 69.9039 88.0353 69.1102 87.0904C68.175 85.9215 67.261 84.6254 66.5987 83.2499C65.9833 81.949 65.0949 80.8547 64.1179 79.9385C62.7694 78.7514 61.7613 77.3065 60.9576 75.7058C60.6496 75.0555 60.2057 74.5081 59.7149 73.8861C58.4507 72.1931 57.1872 70.5001 55.923 68.807C54.2621 66.6418 52.6218 64.3498 50.8668 62.0346C49.9596 62.8318 49.8583 63.7921 49.5742 64.7806C49.1794 66.0732 48.6693 67.343 48.2276 68.561C48.1853 68.8142 48.0277 69.0436 47.9174 69.3483C46.6038 75.4232 45.1745 81.4747 43.9285 87.4976C43.3482 90.2564 42.8139 93.0897 42.349 95.8712C41.9893 98.0208 41.6769 100.246 41.5001 102.367C41.3403 104.034 41.4313 105.621 41.2716 107.288C41.0529 109.662 40.2141 110.408 37.6645 110.351C38.198 107.517 36.6896 104.794 37.1762 101.886C37.5782 99.4833 37.9333 97.006 38.22 94.5806C38.7632 89.2001 40.2272 84.0049 41.3464 78.7406C42.3804 73.9822 43.6923 69.3444 44.1505 64.4696C44.214 64.0903 44.1622 63.6873 44.2212 62.9802C43.6291 63.3185 43.1731 63.5529 42.8322 63.811C40.1373 66.4043 36.9249 68.1746 33.9949 70.3935C32.4957 71.5288 31.0433 72.7389 29.4972 73.7996C28.7476 74.3673 27.8359 74.8367 26.9666 75.0537C25.1125 75.4641 23.3998 76.0987 21.8111 77.412C20.2438 78.5989 19.2542 78.4648 17.9905 76.7713C18.4416 76.2086 18.8246 75.6982 19.3227 75.2101C21.4985 73.2311 23.6744 71.2521 25.8292 69.3991C27.7583 67.828 29.6197 66.3075 31.6897 64.9609C34.237 63.2529 36.4552 61.0207 38.9719 58.7836C37.6914 57.5449 36.1994 57.5702 34.8644 57.3664C34.2206 57.3017 33.6709 57.3868 33.0271 57.3221C27.4632 56.7877 21.8524 56.1777 16.2413 55.5683C12.1479 55.1342 8.09713 54.4475 4.21565 52.7492C3.93829 52.628 3.59295 52.5583 3.36246 52.5118C1.19641 51.9438 0.380562 51.1259 0.381305 47.9231C0.367285 46.94 0.771555 46.3027 1.66664 46.2872C2.92862 46.2151 4.19018 46.1432 5.38862 46.4503C8.9837 47.3718 12.5951 47.8391 16.2747 48.2553C16.62 48.325 17.0338 48.3429 17.3792 48.4126C22.8584 49.4532 28.3383 50.4936 33.8176 51.5342C36.5338 52.0168 39.25 52.5002 41.987 52.856C42.6309 52.9208 43.2959 52.8585 44.4214 52.8897C43.8576 51.9917 43.5965 51.416 43.1998 50.9439C39.346 46.2466 35.8733 41.0357 32.218 35.8536C31.1631 34.3331 29.9037 32.9683 28.7125 31.5513C27.5684 30.2093 26.6545 28.9134 26.1915 27.0555C25.6819 25.1221 26.281 23.6748 27.5498 22.4928C27.9118 22.1086 28.3674 21.8736 28.9126 21.4607C35.28 30.0009 41.4847 38.4426 47.8983 47.0577C48.2815 46.5464 48.5749 46.214 48.7068 45.7829C49.8818 41.249 51.3556 36.7096 51.6094 31.9896C51.6423 31.0812 51.7908 30.1962 51.9385 29.311C52.8059 24.1263 53.5581 18.9189 54.4936 13.6827C55.1494 9.76295 56.0354 5.88895 56.8538 2.06715C57.0492 1.25674 57.1289 0.423027 58.2075 0.379514C59.171 0.312277 59.7514 0.756293 60.2259 1.83272C60.7473 2.98383 60.8554 4.11671 60.5758 5.43314C59.8259 9.20306 59.0762 12.9736 58.5095 16.7158C58.032 20.2795 57.67 23.8666 57.3082 27.4537C57.3127 27.7815 57.3177 28.1089 57.2538 28.4886C56.8428 30.2357 56.0648 32.0395 55.9982 33.8562C55.9325 35.673 56.0028 37.3868 55.5914 39.1334C54.985 41.6909 54.6559 44.3696 54.2113 47.0249C55.0645 47.2622 55.5367 46.5734 56.0135 46.2123C59.1953 43.9129 62.3769 41.6143 65.5117 39.2403L73.8254 32.9442C74.4386 32.4799 75.0986 32.0901 75.7595 31.7006C76.4196 31.3109 77.1529 31.1976 77.6226 31.9458C78.1606 32.6429 78.4943 33.494 77.9797 34.436C77.6223 35.1481 77.1032 35.7623 76.5372 36.3019C75.5408 37.2775 74.4762 38.304 73.2708 39.1067C71.248 40.5285 69.5273 42.273 67.9483 44.2421C67.5864 44.6264 67.2248 45.0111 66.7688 45.2455C63.0797 47.3769 60.3514 50.8789 56.9441 53.4592C56.8762 53.5107 56.7866 53.6887 56.6763 53.9933C57.0685 54.1377 57.4399 54.4087 57.8532 54.4269C59.1877 54.631 60.4542 54.8866 61.763 54.8891C65.1396 54.9824 68.3423 55.7592 71.5235 56.6629C76.0182 57.8969 80.5344 59.0044 84.9611 60.2899C88.3049 61.2917 91.653 62.6208 94.9072 63.8005C96.0841 64.234 97.3299 64.6162 98.46 64.9753C99.0827 65.1661 99.7995 65.5068 99.5361 66.3687C99.4047 66.7994 98.629 67.1658 98.2157 67.1476C94.5408 67.0596 90.8658 66.9713 87.3133 65.797C84.1059 64.6919 80.7884 63.892 77.5177 63.1662C75.5605 62.7712 73.5399 62.7556 71.6079 62.5616C70.6188 62.4272 69.5612 62.3446 68.6616 62.0322C66.0556 61.2451 63.4123 61.0385 60.6632 61.4634C59.6996 61.5315 58.6635 61.3224 57.0563 61.3248L57.0566 61.3249Z" fill="#FFB71E"/>
</svg>
