<svg width="378" height="96" viewBox="0 0 378 96" fill="none" xmlns="http://www.w3.org/2000/svg">
<path d="M12.288 41.448C8.74667 41.448 6.144 40.808 4.48 39.528C2.85867 38.2053 2.048 36.392 2.048 34.088V8.872C2.048 6.01333 2.83733 3.96533 4.416 2.728C5.99467 1.49066 8.55467 0.871998 12.096 0.871998C15.5093 0.871998 18.0693 1.49066 19.776 2.728C21.5253 3.96533 22.3787 6.03467 22.336 8.936V17.384L15.488 18.216V10.6C15.488 9.27733 15.2747 8.27466 14.848 7.592C14.464 6.86666 13.568 6.504 12.16 6.504C10.7947 6.504 9.92 6.888 9.536 7.656C9.19467 8.424 9.024 9.384 9.024 10.536V32.488C9.024 33.384 9.23733 34.152 9.664 34.792C10.0907 35.432 10.9227 35.752 12.16 35.752C13.4827 35.752 14.3573 35.432 14.784 34.792C15.2533 34.152 15.488 33.3627 15.488 32.424V25.32L22.336 24.552V34.088C22.336 36.392 21.4613 38.2053 19.712 39.528C18.0053 40.808 15.5307 41.448 12.288 41.448ZM36.2225 41.32C33.4065 41.32 31.2732 40.9787 29.8225 40.296C28.4145 39.6133 27.4545 38.696 26.9425 37.544C26.4305 36.392 26.1745 35.1333 26.1745 33.768V18.088C26.1745 16.68 26.4305 15.4213 26.9425 14.312C27.4545 13.16 28.4358 12.2427 29.8865 11.56C31.3798 10.8773 33.5558 10.536 36.4145 10.536C38.9745 10.536 41.0012 10.8773 42.4945 11.56C43.9878 12.2 45.0332 13.0747 45.6305 14.184C46.2705 15.2933 46.5905 16.552 46.5905 17.96V33.512C46.5905 35.0053 46.2705 36.3493 45.6305 37.544C44.9905 38.696 43.9238 39.6133 42.4305 40.296C40.9372 40.9787 38.8678 41.32 36.2225 41.32ZM36.1585 35.752C37.4812 35.752 38.4198 35.432 38.9745 34.792C39.5292 34.1093 39.8065 33.2773 39.8065 32.296V19.24C39.8065 18.344 39.5292 17.5547 38.9745 16.872C38.4625 16.1467 37.5878 15.784 36.3505 15.784C35.1558 15.784 34.2812 16.1253 33.7265 16.808C33.2145 17.4907 32.9585 18.3013 32.9585 19.24V32.488C32.9585 33.384 33.2145 34.152 33.7265 34.792C34.2385 35.432 35.0492 35.752 36.1585 35.752ZM51.2475 41V10.856H56.8155L57.4555 13.992C58.0955 12.84 59.0128 11.9653 60.2075 11.368C61.4448 10.728 62.8955 10.408 64.5595 10.408C66.2662 10.408 67.6102 10.664 68.5915 11.176C69.5728 11.688 70.2768 12.3493 70.7035 13.16C71.1728 13.928 71.4502 14.76 71.5355 15.656L70.1275 16.936C70.4688 15.1013 71.0662 13.736 71.9195 12.84C72.7728 11.9013 73.7542 11.2613 74.8635 10.92C76.0155 10.5787 77.1248 10.408 78.1915 10.408C80.1968 10.408 81.6902 10.7707 82.6715 11.496C83.6955 12.1787 84.3782 13.032 84.7195 14.056C85.0608 15.0373 85.2315 15.9973 85.2315 16.936V41H78.4475V19.432C78.4475 18.152 78.1488 17.2347 77.5515 16.68C76.9968 16.1253 76.1862 15.848 75.1195 15.848C74.0955 15.848 73.2635 16.1253 72.6235 16.68C71.9835 17.2347 71.6635 18.152 71.6635 19.432V41H64.8795V19.176C64.8795 18.024 64.5808 17.192 63.9835 16.68C63.4288 16.1253 62.5755 15.848 61.4235 15.848C60.4848 15.848 59.7382 16.0827 59.1835 16.552C58.6715 17.0213 58.2875 17.6613 58.0315 18.472V41H51.2475ZM90.185 10.92H104.713C106.676 10.92 108.062 11.176 108.873 11.688C109.684 12.2 110.174 13.1173 110.345 14.44C110.516 15.72 110.601 17.512 110.601 19.816V33.832C110.601 35.496 110.388 36.8613 109.961 37.928C109.534 38.952 108.788 39.72 107.721 40.232C106.654 40.744 105.14 41 103.177 41H96.969V51.112H90.185V10.92ZM96.969 16.36V35.56H101.449C102.132 35.56 102.644 35.4533 102.985 35.24C103.326 35.0267 103.54 34.6853 103.625 34.216C103.753 33.7467 103.817 33.1493 103.817 32.424V19.688C103.817 18.7067 103.732 17.9813 103.561 17.512C103.433 17.0427 103.198 16.744 102.857 16.616C102.558 16.4453 102.068 16.36 101.385 16.36H96.969ZM115.56 1.128H122.344V41H115.56V1.128ZM132.555 41C130.848 41 129.632 40.744 128.907 40.232C128.182 39.6773 127.712 38.8027 127.499 37.608C127.328 36.3707 127.243 34.728 127.243 32.68V18.088C127.243 16.424 127.456 15.08 127.883 14.056C128.31 12.9893 129.056 12.2 130.123 11.688C131.19 11.176 132.683 10.92 134.603 10.92H147.659V41H140.875V16.36H136.395C135.67 16.36 135.136 16.4667 134.795 16.68C134.454 16.8933 134.24 17.2347 134.155 17.704C134.07 18.1307 134.027 18.728 134.027 19.496V32.232C134.027 33.2133 134.091 33.9387 134.219 34.408C134.347 34.8773 134.56 35.1973 134.859 35.368C135.2 35.496 135.67 35.56 136.267 35.56H139.595L138.891 41H132.555ZM152.81 41V10.92H159.594V41H152.81ZM156.138 7.976C154.602 7.976 153.621 7.76266 153.194 7.336C152.767 6.90933 152.554 6.12 152.554 4.968C152.554 3.77333 152.767 2.96267 153.194 2.536C153.621 2.06666 154.602 1.832 156.138 1.832C157.717 1.832 158.719 2.06666 159.146 2.536C159.573 2.96267 159.786 3.77333 159.786 4.968C159.786 6.12 159.573 6.90933 159.146 7.336C158.719 7.76266 157.717 7.976 156.138 7.976ZM164.623 10.856H170.191L170.831 13.992C171.471 12.84 172.388 11.9653 173.583 11.368C174.82 10.728 176.271 10.408 177.935 10.408C180.196 10.408 181.945 10.9413 183.183 12.008C184.42 13.0747 185.039 14.7173 185.039 16.936V41H178.255V19.24C178.255 18.0453 177.956 17.192 177.359 16.68C176.804 16.168 175.972 15.912 174.863 15.912C173.881 15.912 173.113 16.1467 172.559 16.616C172.047 17.0427 171.663 17.6613 171.407 18.472V41H164.623V10.856Z" fill="white"/>
<path d="M184.288 79.448C180.747 79.448 178.144 78.808 176.48 77.528C174.859 76.2053 174.048 74.392 174.048 72.088V46.872C174.048 44.0133 174.837 41.9653 176.416 40.728C177.995 39.4907 180.555 38.872 184.096 38.872C187.509 38.872 190.069 39.4907 191.776 40.728C193.525 41.9653 194.379 44.0347 194.336 46.936V55.384L187.488 56.216V48.6C187.488 47.2773 187.275 46.2747 186.848 45.592C186.464 44.8667 185.568 44.504 184.16 44.504C182.795 44.504 181.92 44.888 181.536 45.656C181.195 46.424 181.024 47.384 181.024 48.536V70.488C181.024 71.384 181.237 72.152 181.664 72.792C182.091 73.432 182.923 73.752 184.16 73.752C185.483 73.752 186.357 73.432 186.784 72.792C187.253 72.152 187.488 71.3627 187.488 70.424V63.32L194.336 62.552V72.088C194.336 74.392 193.461 76.2053 191.712 77.528C190.005 78.808 187.531 79.448 184.288 79.448ZM208.223 79.32C205.407 79.32 203.273 78.9787 201.823 78.296C200.415 77.6133 199.455 76.696 198.943 75.544C198.431 74.392 198.174 73.1333 198.174 71.768V56.088C198.174 54.68 198.431 53.4213 198.943 52.312C199.455 51.16 200.436 50.2427 201.887 49.56C203.38 48.8773 205.556 48.536 208.415 48.536C210.975 48.536 213.001 48.8773 214.495 49.56C215.988 50.2 217.033 51.0747 217.631 52.184C218.271 53.2933 218.591 54.552 218.591 55.96V71.512C218.591 73.0053 218.271 74.3493 217.631 75.544C216.991 76.696 215.924 77.6133 214.431 78.296C212.937 78.9787 210.868 79.32 208.223 79.32ZM208.159 73.752C209.481 73.752 210.42 73.432 210.975 72.792C211.529 72.1093 211.807 71.2773 211.807 70.296V57.24C211.807 56.344 211.529 55.5547 210.975 54.872C210.463 54.1467 209.588 53.784 208.351 53.784C207.156 53.784 206.281 54.1253 205.727 54.808C205.215 55.4907 204.959 56.3013 204.959 57.24V70.488C204.959 71.384 205.215 72.152 205.727 72.792C206.239 73.432 207.049 73.752 208.159 73.752ZM223.248 48.856H228.816L229.456 51.992C230.096 50.84 231.013 49.9653 232.208 49.368C233.445 48.728 234.896 48.408 236.56 48.408C238.821 48.408 240.57 48.9413 241.808 50.008C243.045 51.0747 243.664 52.7173 243.664 54.936V79H236.88V57.24C236.88 56.0453 236.581 55.192 235.984 54.68C235.429 54.168 234.597 53.912 233.488 53.912C232.506 53.912 231.738 54.1467 231.184 54.616C230.672 55.0427 230.288 55.6613 230.032 56.472V79H223.248V48.856ZM248.498 48.856H254.066L254.706 51.992C255.346 50.84 256.263 49.9653 257.458 49.368C258.695 48.728 260.146 48.408 261.81 48.408C264.071 48.408 265.82 48.9413 267.058 50.008C268.295 51.0747 268.914 52.7173 268.914 54.936V79H262.13V57.24C262.13 56.0453 261.831 55.192 261.234 54.68C260.679 54.168 259.847 53.912 258.738 53.912C257.756 53.912 256.988 54.1467 256.434 54.616C255.922 55.0427 255.538 55.6613 255.282 56.472V79H248.498V48.856ZM283.348 79.32C280.532 79.32 278.398 78.9787 276.948 78.296C275.54 77.6133 274.58 76.696 274.068 75.544C273.556 74.392 273.299 73.1333 273.299 71.768V56.088C273.299 54.68 273.556 53.4213 274.068 52.312C274.58 51.16 275.561 50.2427 277.012 49.56C278.505 48.8773 280.681 48.536 283.54 48.536C286.1 48.536 288.126 48.8773 289.62 49.56C291.113 50.2 292.158 51.0747 292.756 52.184C293.396 53.2933 293.716 54.552 293.716 55.96V61.976L286.932 62.424V57.24C286.932 56.344 286.654 55.5547 286.1 54.872C285.588 54.1467 284.713 53.784 283.476 53.784C282.281 53.784 281.406 54.1253 280.852 54.808C280.34 55.4907 280.084 56.3013 280.084 57.24V70.488C280.084 71.384 280.34 72.152 280.852 72.792C281.364 73.432 282.174 73.752 283.284 73.752C284.606 73.752 285.545 73.432 286.1 72.792C286.654 72.1093 286.932 71.2773 286.932 70.296V68.184L293.716 67.672V71.512C293.716 73.0053 293.396 74.3493 292.756 75.544C292.116 76.696 291.049 77.6133 289.556 78.296C288.062 78.9787 285.993 79.32 283.348 79.32ZM274.068 65.176V61.528H293.716V65.176H274.068ZM307.973 79.32C305.157 79.32 303.023 78.9787 301.573 78.296C300.165 77.6133 299.205 76.696 298.693 75.544C298.181 74.392 297.924 73.1333 297.924 71.768V56.088C297.924 54.68 298.181 53.4213 298.693 52.312C299.205 51.16 300.186 50.2427 301.637 49.56C303.13 48.8773 305.306 48.536 308.165 48.536C310.725 48.536 312.751 48.8773 314.245 49.56C315.738 50.2 316.783 51.0747 317.381 52.184C318.021 53.2933 318.341 54.552 318.341 55.96V60.696L311.557 61.272V57.24C311.557 56.344 311.279 55.5547 310.725 54.872C310.213 54.1467 309.338 53.784 308.101 53.784C306.906 53.784 306.031 54.1253 305.477 54.808C304.965 55.4907 304.709 56.3013 304.709 57.24V70.488C304.709 71.384 304.965 72.152 305.477 72.792C305.989 73.432 306.799 73.752 307.909 73.752C309.231 73.752 310.17 73.432 310.725 72.792C311.279 72.1093 311.557 71.2773 311.557 70.296V66.776L318.341 66.264V71.512C318.341 73.0053 318.021 74.3493 317.381 75.544C316.741 76.696 315.674 77.6133 314.181 78.296C312.687 78.9787 310.618 79.32 307.973 79.32ZM331.58 79C329.958 79 328.529 78.8507 327.292 78.552C326.097 78.2533 325.158 77.6347 324.476 76.696C323.836 75.7573 323.516 74.3493 323.516 72.472V54.04H321.404V48.92H324.156L325.308 43.288H330.236V48.92H335.74L334.204 54.04H330.236V69.528C330.236 71.064 330.513 72.1307 331.068 72.728C331.665 73.2827 332.518 73.56 333.628 73.56H336.06V79H331.58Z" fill="white"/>
</svg>
