<svg width="336" height="85" viewBox="0 0 336 85" fill="none" xmlns="http://www.w3.org/2000/svg">
<path d="M9.216 31.336C6.56 31.336 4.608 30.856 3.36 29.896C2.144 28.904 1.536 27.544 1.536 25.816V6.904C1.536 4.76 2.128 3.224 3.312 2.296C4.496 1.368 6.416 0.903998 9.072 0.903998C11.632 0.903998 13.552 1.368 14.832 2.296C16.144 3.224 16.784 4.776 16.752 6.952V13.288L11.616 13.912V8.2C11.616 7.208 11.456 6.456 11.136 5.944C10.848 5.4 10.176 5.128 9.12 5.128C8.096 5.128 7.44 5.416 7.152 5.992C6.896 6.568 6.768 7.288 6.768 8.152V24.616C6.768 25.288 6.928 25.864 7.248 26.344C7.568 26.824 8.192 27.064 9.12 27.064C10.112 27.064 10.768 26.824 11.088 26.344C11.44 25.864 11.616 25.272 11.616 24.568V19.24L16.752 18.664V25.816C16.752 27.544 16.096 28.904 14.784 29.896C13.504 30.856 11.648 31.336 9.216 31.336ZM27.1669 31.24C25.0549 31.24 23.4549 30.984 22.3669 30.472C21.3109 29.96 20.5909 29.272 20.2069 28.408C19.8229 27.544 19.6309 26.6 19.6309 25.576V13.816C19.6309 12.76 19.8229 11.816 20.2069 10.984C20.5909 10.12 21.3269 9.432 22.4149 8.92C23.5349 8.408 25.1669 8.152 27.3109 8.152C29.2309 8.152 30.7509 8.408 31.8709 8.92C32.9909 9.4 33.7749 10.056 34.2229 10.888C34.7029 11.72 34.9429 12.664 34.9429 13.72V25.384C34.9429 26.504 34.7029 27.512 34.2229 28.408C33.7429 29.272 32.9429 29.96 31.8229 30.472C30.7029 30.984 29.1509 31.24 27.1669 31.24ZM27.1189 27.064C28.1109 27.064 28.8149 26.824 29.2309 26.344C29.6469 25.832 29.8549 25.208 29.8549 24.472V14.68C29.8549 14.008 29.6469 13.416 29.2309 12.904C28.8469 12.36 28.1909 12.088 27.2629 12.088C26.3669 12.088 25.7109 12.344 25.2949 12.856C24.9109 13.368 24.7189 13.976 24.7189 14.68V24.616C24.7189 25.288 24.9109 25.864 25.2949 26.344C25.6789 26.824 26.2869 27.064 27.1189 27.064ZM38.4356 31V8.392H42.6116L43.0916 10.744C43.5716 9.88 44.2596 9.224 45.1556 8.776C46.0836 8.296 47.1716 8.056 48.4196 8.056C49.6996 8.056 50.7076 8.248 51.4436 8.632C52.1796 9.016 52.7076 9.512 53.0276 10.12C53.3796 10.696 53.5876 11.32 53.6516 11.992L52.5956 12.952C52.8516 11.576 53.2996 10.552 53.9396 9.88C54.5796 9.176 55.3156 8.696 56.1476 8.44C57.0116 8.184 57.8436 8.056 58.6436 8.056C60.1476 8.056 61.2676 8.328 62.0036 8.872C62.7716 9.384 63.2836 10.024 63.5396 10.792C63.7956 11.528 63.9236 12.248 63.9236 12.952V31H58.8356V14.824C58.8356 13.864 58.6116 13.176 58.1636 12.76C57.7476 12.344 57.1396 12.136 56.3396 12.136C55.5716 12.136 54.9476 12.344 54.4676 12.76C53.9876 13.176 53.7476 13.864 53.7476 14.824V31H48.6596V14.632C48.6596 13.768 48.4356 13.144 47.9876 12.76C47.5716 12.344 46.9316 12.136 46.0676 12.136C45.3636 12.136 44.8036 12.312 44.3876 12.664C44.0036 13.016 43.7156 13.496 43.5236 14.104V31H38.4356ZM67.6388 8.44H78.5348C80.0068 8.44 81.0468 8.632 81.6548 9.016C82.2628 9.4 82.6308 10.088 82.7588 11.08C82.8868 12.04 82.9508 13.384 82.9508 15.112V25.624C82.9508 26.872 82.7908 27.896 82.4708 28.696C82.1508 29.464 81.5908 30.04 80.7908 30.424C79.9908 30.808 78.8548 31 77.3828 31H72.7268V38.584H67.6388V8.44ZM72.7268 12.52V26.92H76.0868C76.5988 26.92 76.9828 26.84 77.2388 26.68C77.4948 26.52 77.6548 26.264 77.7188 25.912C77.8148 25.56 77.8628 25.112 77.8628 24.568V15.016C77.8628 14.28 77.7988 13.736 77.6708 13.384C77.5748 13.032 77.3988 12.808 77.1428 12.712C76.9188 12.584 76.5508 12.52 76.0388 12.52H72.7268ZM86.67 1.096H91.758V31H86.67V1.096ZM99.4163 31C98.1363 31 97.2243 30.808 96.6803 30.424C96.1363 30.008 95.7843 29.352 95.6243 28.456C95.4963 27.528 95.4323 26.296 95.4323 24.76V13.816C95.4323 12.568 95.5923 11.56 95.9123 10.792C96.2323 9.992 96.7923 9.4 97.5923 9.016C98.3923 8.632 99.5123 8.44 100.952 8.44H110.744V31H105.656V12.52H102.296C101.752 12.52 101.352 12.6 101.096 12.76C100.84 12.92 100.68 13.176 100.616 13.528C100.552 13.848 100.52 14.296 100.52 14.872V24.424C100.52 25.16 100.568 25.704 100.664 26.056C100.76 26.408 100.92 26.648 101.144 26.776C101.4 26.872 101.752 26.92 102.2 26.92H104.696L104.168 31H99.4163ZM114.608 31V8.44H119.696V31H114.608ZM117.104 6.232C115.952 6.232 115.216 6.072 114.896 5.752C114.576 5.432 114.416 4.84 114.416 3.976C114.416 3.08 114.576 2.472 114.896 2.152C115.216 1.8 115.952 1.624 117.104 1.624C118.288 1.624 119.04 1.8 119.36 2.152C119.68 2.472 119.84 3.08 119.84 3.976C119.84 4.84 119.68 5.432 119.36 5.752C119.04 6.072 118.288 6.232 117.104 6.232ZM123.467 8.392H127.643L128.123 10.744C128.603 9.88 129.291 9.224 130.187 8.776C131.115 8.296 132.203 8.056 133.451 8.056C135.147 8.056 136.459 8.456 137.387 9.256C138.315 10.056 138.779 11.288 138.779 12.952V31H133.691V14.68C133.691 13.784 133.467 13.144 133.019 12.76C132.603 12.376 131.979 12.184 131.147 12.184C130.411 12.184 129.835 12.36 129.419 12.712C129.035 13.032 128.747 13.496 128.555 14.104V31H123.467V8.392Z" fill="#FFB219"/>
<path d="M139.216 58.336C136.56 58.336 134.608 57.856 133.36 56.896C132.144 55.904 131.536 54.544 131.536 52.816V33.904C131.536 31.76 132.128 30.224 133.312 29.296C134.496 28.368 136.416 27.904 139.072 27.904C141.632 27.904 143.552 28.368 144.832 29.296C146.144 30.224 146.784 31.776 146.752 33.952V40.288L141.616 40.912V35.2C141.616 34.208 141.456 33.456 141.136 32.944C140.848 32.4 140.176 32.128 139.12 32.128C138.096 32.128 137.44 32.416 137.152 32.992C136.896 33.568 136.768 34.288 136.768 35.152V51.616C136.768 52.288 136.928 52.864 137.248 53.344C137.568 53.824 138.192 54.064 139.12 54.064C140.112 54.064 140.768 53.824 141.088 53.344C141.44 52.864 141.616 52.272 141.616 51.568V46.24L146.752 45.664V52.816C146.752 54.544 146.096 55.904 144.784 56.896C143.504 57.856 141.648 58.336 139.216 58.336ZM157.167 58.24C155.055 58.24 153.455 57.984 152.367 57.472C151.311 56.96 150.591 56.272 150.207 55.408C149.823 54.544 149.631 53.6 149.631 52.576V40.816C149.631 39.76 149.823 38.816 150.207 37.984C150.591 37.12 151.327 36.432 152.415 35.92C153.535 35.408 155.167 35.152 157.311 35.152C159.231 35.152 160.751 35.408 161.871 35.92C162.991 36.4 163.775 37.056 164.223 37.888C164.703 38.72 164.943 39.664 164.943 40.72V52.384C164.943 53.504 164.703 54.512 164.223 55.408C163.743 56.272 162.943 56.96 161.823 57.472C160.703 57.984 159.151 58.24 157.167 58.24ZM157.119 54.064C158.111 54.064 158.815 53.824 159.231 53.344C159.647 52.832 159.855 52.208 159.855 51.472V41.68C159.855 41.008 159.647 40.416 159.231 39.904C158.847 39.36 158.191 39.088 157.263 39.088C156.367 39.088 155.711 39.344 155.295 39.856C154.911 40.368 154.719 40.976 154.719 41.68V51.616C154.719 52.288 154.911 52.864 155.295 53.344C155.679 53.824 156.287 54.064 157.119 54.064ZM168.436 35.392H172.612L173.092 37.744C173.572 36.88 174.26 36.224 175.156 35.776C176.084 35.296 177.172 35.056 178.42 35.056C180.116 35.056 181.428 35.456 182.356 36.256C183.284 37.056 183.748 38.288 183.748 39.952V58H178.66V41.68C178.66 40.784 178.436 40.144 177.988 39.76C177.572 39.376 176.948 39.184 176.116 39.184C175.38 39.184 174.804 39.36 174.388 39.712C174.004 40.032 173.716 40.496 173.524 41.104V58H168.436V35.392ZM187.373 35.392H191.549L192.029 37.744C192.509 36.88 193.197 36.224 194.093 35.776C195.021 35.296 196.109 35.056 197.357 35.056C199.053 35.056 200.365 35.456 201.293 36.256C202.221 37.056 202.685 38.288 202.685 39.952V58H197.597V41.68C197.597 40.784 197.373 40.144 196.925 39.76C196.509 39.376 195.885 39.184 195.053 39.184C194.317 39.184 193.741 39.36 193.325 39.712C192.941 40.032 192.653 40.496 192.461 41.104V58H187.373V35.392ZM213.511 58.24C211.399 58.24 209.799 57.984 208.711 57.472C207.655 56.96 206.935 56.272 206.551 55.408C206.167 54.544 205.975 53.6 205.975 52.576V40.816C205.975 39.76 206.167 38.816 206.551 37.984C206.935 37.12 207.671 36.432 208.759 35.92C209.879 35.408 211.511 35.152 213.655 35.152C215.575 35.152 217.095 35.408 218.215 35.92C219.335 36.4 220.119 37.056 220.567 37.888C221.047 38.72 221.287 39.664 221.287 40.72V45.232L216.199 45.568V41.68C216.199 41.008 215.991 40.416 215.575 39.904C215.191 39.36 214.535 39.088 213.607 39.088C212.711 39.088 212.055 39.344 211.639 39.856C211.255 40.368 211.063 40.976 211.063 41.68V51.616C211.063 52.288 211.255 52.864 211.639 53.344C212.023 53.824 212.631 54.064 213.463 54.064C214.455 54.064 215.159 53.824 215.575 53.344C215.991 52.832 216.199 52.208 216.199 51.472V49.888L221.287 49.504V52.384C221.287 53.504 221.047 54.512 220.567 55.408C220.087 56.272 219.287 56.96 218.167 57.472C217.047 57.984 215.495 58.24 213.511 58.24ZM206.551 47.632V44.896H221.287V47.632H206.551ZM231.979 58.24C229.867 58.24 228.267 57.984 227.179 57.472C226.123 56.96 225.403 56.272 225.019 55.408C224.635 54.544 224.443 53.6 224.443 52.576V40.816C224.443 39.76 224.635 38.816 225.019 37.984C225.403 37.12 226.139 36.432 227.227 35.92C228.347 35.408 229.979 35.152 232.123 35.152C234.043 35.152 235.563 35.408 236.683 35.92C237.803 36.4 238.587 37.056 239.035 37.888C239.515 38.72 239.755 39.664 239.755 40.72V44.272L234.667 44.704V41.68C234.667 41.008 234.459 40.416 234.043 39.904C233.659 39.36 233.003 39.088 232.075 39.088C231.179 39.088 230.523 39.344 230.107 39.856C229.723 40.368 229.531 40.976 229.531 41.68V51.616C229.531 52.288 229.723 52.864 230.107 53.344C230.491 53.824 231.099 54.064 231.931 54.064C232.923 54.064 233.627 53.824 234.043 53.344C234.459 52.832 234.667 52.208 234.667 51.472V48.832L239.755 48.448V52.384C239.755 53.504 239.515 54.512 239.035 55.408C238.555 56.272 237.755 56.96 236.635 57.472C235.515 57.984 233.963 58.24 231.979 58.24ZM249.685 58C248.469 58 247.397 57.888 246.469 57.664C245.573 57.44 244.869 56.976 244.357 56.272C243.877 55.568 243.637 54.512 243.637 53.104V39.28H242.053V35.44H244.117L244.981 31.216H248.677V35.44H252.805L251.653 39.28H248.677V50.896C248.677 52.048 248.885 52.848 249.301 53.296C249.749 53.712 250.389 53.92 251.221 53.92H253.045V58H249.685Z" fill="#FFB219"/>
</svg>
