<svg width="1920" height="938" viewBox="0 0 1920 938" fill="none" xmlns="http://www.w3.org/2000/svg">
<rect width="2177.78" height="210.323" transform="matrix(0.973698 0.227844 -0.17589 0.98441 -169.607 77.1934)" fill="#FFB219"/>
<path d="M-1.89531 115.89L17.3941 120.404L-36.8472 144.739L-56.1365 140.226L-1.89531 115.89Z" fill="black"/>
<path d="M38.0134 125.229L57.3027 129.743L3.06152 154.078L-16.2278 149.564L38.0134 125.229Z" fill="black"/>
<path d="M77.923 134.567L97.2124 139.081L42.9712 163.416L23.6818 158.902L77.923 134.567Z" fill="black"/>
<path d="M117.832 143.907L137.121 148.42L82.8799 172.755L63.5905 168.242L117.832 143.907Z" fill="black"/>
<path d="M157.74 153.245L177.03 157.759L122.789 182.094L103.499 177.58L157.74 153.245Z" fill="black"/>
<path d="M197.649 162.584L216.938 167.098L162.697 191.433L143.408 186.919L197.649 162.584Z" fill="black"/>
<path d="M237.559 171.922L256.849 176.435L202.607 200.771L183.318 196.257L237.559 171.922Z" fill="black"/>
<path d="M277.467 181.261L296.757 185.775L242.516 210.11L223.226 205.596L277.467 181.261Z" fill="black"/>
<path d="M317.377 190.599L336.666 195.113L282.425 219.448L263.135 214.935L317.377 190.599Z" fill="black"/>
<path d="M357.285 199.938L376.575 204.452L322.333 228.787L303.044 224.273L357.285 199.938Z" fill="black"/>
<path d="M397.195 209.277L416.484 213.79L362.243 238.126L342.954 233.612L397.195 209.277Z" fill="black"/>
<path d="M437.103 218.616L456.392 223.13L402.151 247.465L382.862 242.951L437.103 218.616Z" fill="black"/>
<path d="M477.013 227.954L496.302 232.468L442.061 256.803L422.772 252.289L477.013 227.954Z" fill="black"/>
<path d="M516.922 237.293L536.211 241.806L481.97 266.142L462.68 261.628L516.922 237.293Z" fill="black"/>
<path d="M556.831 246.631L576.121 251.145L521.879 275.48L502.59 270.966L556.831 246.631Z" fill="black"/>
<path d="M596.739 255.97L616.028 260.484L561.787 284.819L542.498 280.305L596.739 255.97Z" fill="black"/>
<path d="M636.649 265.309L655.938 269.823L601.697 294.158L582.407 289.644L636.649 265.309Z" fill="black"/>
<path d="M676.557 274.647L695.847 279.161L641.605 303.496L622.316 298.982L676.557 274.647Z" fill="black"/>
<path d="M716.467 283.986L735.756 288.499L681.515 312.835L662.225 308.321L716.467 283.986Z" fill="black"/>
<path d="M756.376 293.325L775.666 297.838L721.424 322.173L702.135 317.66L756.376 293.325Z" fill="black"/>
<path d="M796.285 302.664L815.574 307.178L761.333 331.513L742.044 326.999L796.285 302.664Z" fill="black"/>
<path d="M836.194 312.002L855.483 316.516L801.242 340.851L781.953 336.337L836.194 312.002Z" fill="black"/>
<path d="M876.103 321.34L895.392 325.854L841.151 350.189L821.862 345.675L876.103 321.34Z" fill="black"/>
<path d="M916.012 330.679L935.302 335.193L881.061 359.528L861.771 355.014L916.012 330.679Z" fill="black"/>
<path d="M955.921 340.018L975.21 344.532L920.969 368.867L901.68 364.354L955.921 340.018Z" fill="black"/>
<path d="M995.83 349.357L1015.12 353.87L960.878 378.206L941.589 373.692L995.83 349.357Z" fill="black"/>
<path d="M1035.74 358.696L1055.03 363.209L1000.79 387.545L981.497 383.031L1035.74 358.696Z" fill="black"/>
<path d="M1075.65 368.034L1094.94 372.547L1040.7 396.882L1021.41 392.369L1075.65 368.034Z" fill="black"/>
<path d="M1115.56 377.373L1134.85 381.887L1080.6 406.222L1061.32 401.708L1115.56 377.373Z" fill="black"/>
<path d="M1155.47 386.711L1174.76 391.225L1120.51 415.56L1101.22 411.046L1155.47 386.711Z" fill="black"/>
<path d="M1195.37 396.05L1214.66 400.564L1160.42 424.899L1141.13 420.385L1195.37 396.05Z" fill="black"/>
<path d="M1235.28 405.389L1254.57 409.902L1200.33 434.237L1181.04 429.724L1235.28 405.389Z" fill="black"/>
<path d="M1275.19 414.727L1294.48 419.241L1240.24 443.576L1220.95 439.063L1275.19 414.727Z" fill="black"/>
<path d="M1315.1 424.066L1334.39 428.579L1280.15 452.915L1260.86 448.401L1315.1 424.066Z" fill="black"/>
<path d="M1355.01 433.405L1374.3 437.918L1320.06 462.253L1300.77 457.74L1355.01 433.405Z" fill="black"/>
<path d="M1394.92 442.743L1414.21 447.257L1359.97 471.592L1340.68 467.078L1394.92 442.743Z" fill="black"/>
<path d="M1434.83 452.082L1454.12 456.596L1399.88 480.931L1380.59 476.417L1434.83 452.082Z" fill="black"/>
<path d="M1474.74 461.421L1494.03 465.934L1439.79 490.27L1420.5 485.756L1474.74 461.421Z" fill="black"/>
<path d="M1514.65 470.76L1533.94 475.273L1479.69 499.608L1460.41 495.095L1514.65 470.76Z" fill="black"/>
<path d="M1554.56 480.097L1573.85 484.611L1519.6 508.946L1500.31 504.433L1554.56 480.097Z" fill="black"/>
<path d="M1594.47 489.436L1613.75 493.95L1559.51 518.285L1540.22 513.772L1594.47 489.436Z" fill="black"/>
<path d="M1634.37 498.775L1653.66 503.289L1599.42 527.624L1580.13 523.11L1634.37 498.775Z" fill="black"/>
<path d="M1674.28 508.114L1693.57 512.628L1639.33 536.963L1620.04 532.449L1674.28 508.114Z" fill="black"/>
<path d="M1714.19 517.452L1733.48 521.966L1679.24 546.301L1659.95 541.787L1714.19 517.452Z" fill="black"/>
<path d="M1754.1 526.791L1773.39 531.305L1719.15 555.64L1699.86 551.126L1754.1 526.791Z" fill="black"/>
<path d="M1794.01 536.129L1813.3 540.643L1759.06 564.978L1739.77 560.464L1794.01 536.129Z" fill="black"/>
<path d="M1833.92 545.469L1853.21 549.982L1798.97 574.317L1779.68 569.804L1833.92 545.469Z" fill="black"/>
<path d="M1873.83 554.807L1893.12 559.321L1838.88 583.656L1819.59 579.142L1873.83 554.807Z" fill="black"/>
<path d="M1913.74 564.146L1933.03 568.66L1878.79 592.995L1859.5 588.481L1913.74 564.146Z" fill="black"/>
<path d="M1953.65 573.484L1972.94 577.997L1918.69 602.333L1899.4 597.819L1953.65 573.484Z" fill="black"/>
<path d="M8.5417 290.172L27.8311 294.685L-27.6473 325.944L-46.9366 321.431L8.5417 290.172Z" fill="black"/>
<path d="M48.4514 299.51L67.7407 304.024L12.2624 335.283L-7.02695 330.769L48.4514 299.51Z" fill="black"/>
<path d="M88.3601 308.849L107.649 313.363L52.1711 344.622L32.8817 340.108L88.3601 308.849Z" fill="black"/>
<path d="M128.269 318.188L147.559 322.702L92.0803 353.96L72.7909 349.447L128.269 318.188Z" fill="black"/>
<path d="M168.178 327.527L187.467 332.04L131.989 363.299L112.7 358.786L168.178 327.527Z" fill="black"/>
<path d="M208.088 336.865L227.377 341.378L171.899 372.637L152.609 368.123L208.088 336.865Z" fill="black"/>
<path d="M247.996 346.203L267.286 350.717L211.807 381.976L192.518 377.462L247.996 346.203Z" fill="black"/>
<path d="M287.905 355.543L307.195 360.056L251.717 391.315L232.427 386.802L287.905 355.543Z" fill="black"/>
<path d="M327.814 364.881L347.103 369.395L291.625 400.654L272.335 396.14L327.814 364.881Z" fill="black"/>
<path d="M367.723 374.22L387.013 378.733L331.534 409.992L312.245 405.478L367.723 374.22Z" fill="black"/>
<path d="M407.632 383.558L426.921 388.072L371.443 419.331L352.154 414.817L407.632 383.558Z" fill="black"/>
<path d="M447.541 392.898L466.831 397.411L411.352 428.67L392.063 424.157L447.541 392.898Z" fill="black"/>
<path d="M487.45 402.236L506.739 406.749L451.261 438.008L431.972 433.495L487.45 402.236Z" fill="black"/>
<path d="M527.36 411.575L546.649 416.088L491.171 447.347L471.881 442.833L527.36 411.575Z" fill="black"/>
<path d="M567.268 420.913L586.558 425.427L531.079 456.686L511.79 452.172L567.268 420.913Z" fill="black"/>
<path d="M607.177 430.251L626.467 434.765L570.988 466.023L551.699 461.51L607.177 430.251Z" fill="black"/>
<path d="M647.086 439.59L666.375 444.104L610.897 475.363L591.607 470.849L647.086 439.59Z" fill="black"/>
<path d="M686.995 448.929L706.284 453.443L650.806 484.702L631.517 480.188L686.995 448.929Z" fill="black"/>
<path d="M726.905 458.267L746.194 462.781L690.716 494.04L671.427 489.526L726.905 458.267Z" fill="black"/>
<path d="M766.813 467.606L786.103 472.12L730.624 503.379L711.335 498.865L766.813 467.606Z" fill="black"/>
<path d="M806.722 476.945L826.012 481.459L770.533 512.718L751.244 508.204L806.722 476.945Z" fill="black"/>
<path d="M846.632 486.284L865.921 490.798L810.443 522.057L791.153 517.543L846.632 486.284Z" fill="black"/>
<path d="M886.541 495.622L905.83 500.136L850.352 531.394L831.062 526.881L886.541 495.622Z" fill="black"/>
<path d="M926.449 504.961L945.739 509.474L890.26 540.733L870.971 536.22L926.449 504.961Z" fill="black"/>
<path d="M966.359 514.3L985.648 518.813L930.17 550.072L910.88 545.559L966.359 514.3Z" fill="black"/>
<path d="M1006.27 523.639L1025.56 528.152L970.078 559.411L950.789 554.897L1006.27 523.639Z" fill="black"/>
<path d="M1046.18 532.976L1065.47 537.49L1009.99 568.749L990.699 564.235L1046.18 532.976Z" fill="black"/>
<path d="M1086.09 542.315L1105.37 546.829L1049.9 578.088L1030.61 573.574L1086.09 542.315Z" fill="black"/>
<path d="M1125.99 551.654L1145.28 556.167L1089.81 587.426L1070.52 582.913L1125.99 551.654Z" fill="black"/>
<path d="M1165.9 560.993L1185.19 565.507L1129.71 596.766L1110.43 592.252L1165.9 560.993Z" fill="black"/>
<path d="M1205.81 570.331L1225.1 574.845L1169.62 606.104L1150.33 601.59L1205.81 570.331Z" fill="black"/>
<path d="M1245.72 579.67L1265.01 584.184L1209.53 615.443L1190.24 610.929L1245.72 579.67Z" fill="black"/>
<path d="M1285.63 589.008L1304.92 593.522L1249.44 624.781L1230.15 620.267L1285.63 589.008Z" fill="black"/>
<path d="M1325.54 598.347L1344.83 602.861L1289.35 634.12L1270.06 629.606L1325.54 598.347Z" fill="black"/>
<path d="M1365.45 607.686L1384.74 612.2L1329.26 643.458L1309.97 638.945L1365.45 607.686Z" fill="black"/>
<path d="M1405.36 617.025L1424.65 621.538L1369.17 652.797L1349.88 648.284L1405.36 617.025Z" fill="black"/>
<path d="M1445.27 626.363L1464.56 630.876L1409.08 662.135L1389.79 657.622L1445.27 626.363Z" fill="black"/>
<path d="M1485.18 635.702L1504.46 640.216L1448.99 671.475L1429.7 666.961L1485.18 635.702Z" fill="black"/>
<path d="M1525.08 645.041L1544.37 649.555L1488.9 680.813L1469.61 676.3L1525.08 645.041Z" fill="black"/>
<path d="M1564.99 654.379L1584.28 658.893L1528.81 690.152L1509.52 685.638L1564.99 654.379Z" fill="black"/>
<path d="M1604.9 663.718L1624.19 668.231L1568.71 699.49L1549.42 694.977L1604.9 663.718Z" fill="black"/>
<path d="M1644.81 673.057L1664.1 677.571L1608.62 708.83L1589.33 704.316L1644.81 673.057Z" fill="black"/>
<path d="M1684.72 682.396L1704.01 686.91L1648.53 718.168L1629.24 713.655L1684.72 682.396Z" fill="black"/>
<path d="M1724.63 691.734L1743.92 696.247L1688.44 727.506L1669.15 722.993L1724.63 691.734Z" fill="black"/>
<path d="M1764.54 701.073L1783.83 705.586L1728.35 736.845L1709.06 732.331L1764.54 701.073Z" fill="black"/>
<path d="M1804.45 710.411L1823.74 714.925L1768.26 746.184L1748.97 741.67L1804.45 710.411Z" fill="black"/>
<path d="M1844.36 719.75L1863.65 724.264L1808.17 755.523L1788.88 751.009L1844.36 719.75Z" fill="black"/>
<path d="M1884.27 729.088L1903.56 733.602L1848.08 764.861L1828.79 760.347L1884.27 729.088Z" fill="black"/>
<path d="M1924.18 738.427L1943.46 742.941L1887.99 774.2L1868.7 769.686L1924.18 738.427Z" fill="black"/>
<path d="M1964.08 747.765L1983.37 752.279L1927.9 783.538L1908.61 779.024L1964.08 747.765Z" fill="black"/>
<path d="M306.448 284.892C306.293 285.762 305.981 286.552 305.512 287.262C305.048 287.952 304.477 288.52 303.799 288.966C303.122 289.411 302.364 289.709 301.527 289.858C300.709 290.012 299.87 289.988 299.01 289.787L273.84 283.897C272.98 283.696 272.19 283.338 271.47 282.825C270.771 282.316 270.187 281.705 269.717 280.99C269.247 280.276 268.916 279.497 268.726 278.654C268.538 277.79 268.523 276.924 268.678 276.054L274.363 244.237C274.518 243.367 274.828 242.588 275.293 241.898C275.761 241.187 276.333 240.62 277.006 240.195C277.683 239.749 278.431 239.449 279.248 239.295C280.089 239.125 280.94 239.141 281.801 239.342L306.971 245.232C307.831 245.433 308.609 245.799 309.304 246.328C310.024 246.842 310.618 247.456 311.088 248.17C311.562 248.863 311.893 249.642 312.08 250.506C312.271 251.349 312.288 252.206 312.133 253.076L306.448 284.892ZM280.663 245.712L274.978 277.528L300.148 283.418L305.833 251.601L280.663 245.712ZM344.986 300.545L338.931 299.129L343.75 272.159L326.878 268.211L322.059 295.181L316.036 293.771L321.948 260.681L327.972 262.09L326.928 267.932C327.113 267.133 327.433 266.42 327.886 265.793C328.344 265.145 328.885 264.624 329.51 264.231C330.16 263.822 330.869 263.556 331.638 263.434C332.41 263.291 333.206 263.315 334.026 263.507L344.844 266.038C345.684 266.235 346.443 266.585 347.121 267.089C347.803 267.573 348.361 268.156 348.794 268.84C349.251 269.508 349.566 270.251 349.74 271.069C349.935 271.891 349.956 272.727 349.804 273.576L344.986 300.545ZM385.154 295.961L363.488 290.891L362.183 298.193L383.85 303.263L382.756 309.383L361.089 304.314C360.27 304.122 359.519 303.784 358.837 303.301C358.159 302.797 357.591 302.211 357.134 301.543C356.701 300.859 356.388 300.106 356.193 299.283C356.019 298.466 356.008 297.632 356.16 296.783L359.885 275.935C360.036 275.086 360.333 274.324 360.773 273.65C361.234 272.981 361.779 272.44 362.408 272.026C363.061 271.596 363.784 271.312 364.577 271.174C365.374 271.015 366.182 271.032 367.002 271.223L382.614 274.877C383.454 275.073 384.213 275.423 384.892 275.927C385.574 276.411 386.131 276.994 386.564 277.678C387.021 278.346 387.336 279.089 387.51 279.907C387.705 280.729 387.726 281.565 387.575 282.414L385.154 295.961ZM365.908 277.344L364.581 284.77L380.193 288.423L381.52 280.997L365.908 277.344ZM414.318 301.717C414.47 300.868 414.764 300.117 415.201 299.464C415.662 298.795 416.209 298.243 416.841 297.808C417.494 297.378 418.218 297.094 419.011 296.956C419.807 296.797 420.616 296.814 421.435 297.006L437.047 300.659L438.191 294.258L418.43 289.634L419.524 283.513L439.285 288.137C440.125 288.334 440.884 288.684 441.562 289.188C442.244 289.672 442.802 290.255 443.234 290.939C443.691 291.607 444.007 292.35 444.181 293.168C444.376 293.99 444.397 294.826 444.245 295.675L439.426 322.644L433.372 321.228L434.371 315.635C434.173 316.387 433.839 317.064 433.368 317.666C432.898 318.268 432.34 318.763 431.694 319.152C431.072 319.524 430.387 319.774 429.639 319.901C428.891 320.028 428.127 320 427.349 319.818L417.76 317.574C416.941 317.383 416.19 317.045 415.508 316.562C414.829 316.058 414.262 315.472 413.805 314.804C413.372 314.12 413.058 313.367 412.864 312.544C412.69 311.727 412.678 310.893 412.83 310.044L414.318 301.717ZM418.854 311.453L434.466 315.107L435.954 306.78L420.342 303.127L418.854 311.453ZM478.487 331.784L472.433 330.368L477.252 303.399L460.38 299.45L455.561 326.42L449.537 325.01L455.45 291.92L461.473 293.33L460.43 299.171C460.615 298.373 460.934 297.66 461.388 297.032C461.845 296.384 462.387 295.863 463.012 295.47C463.661 295.061 464.371 294.795 465.139 294.673C465.912 294.53 466.708 294.555 467.528 294.746L478.345 297.278C479.185 297.474 479.945 297.824 480.623 298.329C481.305 298.812 481.863 299.395 482.295 300.079C482.752 300.747 483.068 301.49 483.242 302.308C483.436 303.13 483.458 303.966 483.306 304.815L478.487 331.784ZM493.386 307.174C493.538 306.325 493.834 305.563 494.275 304.889C494.736 304.22 495.281 303.679 495.91 303.265C496.563 302.835 497.286 302.551 498.079 302.413C498.876 302.254 499.684 302.271 500.504 302.463L517.376 306.411L519.652 293.672L525.706 295.088L517.518 340.917L511.463 339.501L512.463 333.908C512.264 334.66 511.93 335.337 511.459 335.939C510.989 336.541 510.431 337.036 509.785 337.425C509.164 337.797 508.479 338.047 507.73 338.174C506.982 338.301 506.218 338.273 505.44 338.091L494.591 335.553C493.772 335.361 493.021 335.023 492.339 334.54C491.66 334.036 491.093 333.45 490.636 332.782C490.203 332.098 489.889 331.345 489.695 330.523C489.521 329.705 489.51 328.872 489.661 328.022L493.386 307.174ZM495.685 329.432L512.557 333.38L516.282 312.532L499.41 308.584L495.685 329.432ZM585.99 350.304C585.835 351.174 585.523 351.964 585.055 352.675C584.59 353.365 584.019 353.932 583.342 354.378C582.664 354.824 581.907 355.121 581.069 355.271C580.252 355.425 579.413 355.401 578.552 355.2L553.382 349.31C552.522 349.108 551.732 348.751 551.013 348.237C550.314 347.729 549.729 347.117 549.259 346.403C548.789 345.689 548.459 344.91 548.268 344.067C548.081 343.203 548.065 342.336 548.22 341.466L553.905 309.65C554.061 308.78 554.371 308 554.835 307.31C555.304 306.6 555.875 306.032 556.548 305.607C557.226 305.161 557.973 304.862 558.79 304.708C559.632 304.538 560.483 304.553 561.343 304.755L586.513 310.644C587.374 310.846 588.151 311.211 588.847 311.741C589.566 312.254 590.161 312.868 590.631 313.582C591.104 314.276 591.435 315.055 591.622 315.918C591.813 316.762 591.831 317.618 591.675 318.488L585.99 350.304ZM560.205 311.124L554.52 342.94L579.69 348.83L585.375 317.014L560.205 311.124ZM624.528 365.958L618.474 364.541L623.292 337.572L606.42 333.624L601.602 360.593L595.578 359.184L601.49 326.093L607.514 327.503L606.47 333.344C606.656 332.546 606.975 331.833 607.429 331.205C607.886 330.557 608.427 330.036 609.053 329.643C609.702 329.234 610.411 328.968 611.18 328.846C611.953 328.703 612.749 328.728 613.568 328.92L624.386 331.451C625.226 331.648 625.985 331.998 626.664 332.502C627.346 332.985 627.903 333.569 628.336 334.253C628.793 334.921 629.108 335.663 629.282 336.481C629.477 337.303 629.498 338.139 629.347 338.989L624.528 365.958ZM648.82 323.897L640.632 369.726L634.608 368.317L642.797 322.487L648.82 323.897ZM650.538 385.963L660.311 371.223L652.844 338.11L659.206 339.599L664.694 364.61L678.322 344.072L684.683 345.56L656.561 387.372L650.538 385.963ZM713.162 340.28L722.196 388.812L715.896 387.338L713.824 376.171L693.941 371.518L688.206 380.858L681.905 379.384L706.861 338.806L713.162 340.28ZM697.476 365.71L712.535 369.233L708.545 347.842L697.476 365.71ZM733.96 363.468C734.112 362.619 734.408 361.857 734.848 361.183C735.309 360.514 735.854 359.973 736.483 359.559C737.136 359.129 737.86 358.845 738.653 358.707C739.449 358.548 740.258 358.565 741.077 358.756L751.926 361.295C752.725 361.482 753.455 361.815 754.117 362.293C754.782 362.751 755.333 363.312 755.769 363.975C756.23 364.622 756.559 365.347 756.758 366.148C756.98 366.934 757.029 367.733 756.906 368.546L757.949 362.705L764.003 364.121L756.798 404.451C756.646 405.3 756.339 406.059 755.878 406.728C755.438 407.402 754.893 407.943 754.243 408.353C753.611 408.787 752.898 409.073 752.105 409.212C751.308 409.37 750.49 409.352 749.65 409.155L730.534 404.682L731.628 398.561L750.743 403.034L752.264 394.521L735.392 390.573C734.573 390.381 733.822 390.043 733.14 389.56C732.462 389.056 731.894 388.47 731.437 387.802C731.004 387.118 730.691 386.365 730.496 385.543C730.322 384.725 730.311 383.892 730.462 383.042L733.96 363.468ZM753.358 388.4L756.856 368.825L739.983 364.877L736.486 384.452L753.358 388.4ZM798.26 392.627L776.593 387.557L775.289 394.859L796.955 399.929L795.861 406.05L774.195 400.98C773.375 400.788 772.625 400.45 771.943 399.967C771.264 399.463 770.697 398.877 770.24 398.209C769.807 397.525 769.493 396.772 769.299 395.95C769.125 395.132 769.113 394.299 769.265 393.449L772.99 372.601C773.142 371.752 773.438 370.99 773.879 370.316C774.34 369.647 774.885 369.106 775.514 368.692C776.167 368.262 776.89 367.978 777.683 367.84C778.48 367.681 779.288 367.698 780.107 367.89L795.719 371.543C796.559 371.739 797.319 372.09 797.997 372.594C798.679 373.077 799.237 373.66 799.669 374.344C800.126 375.012 800.442 375.755 800.616 376.573C800.81 377.395 800.832 378.231 800.68 379.08L798.26 392.627ZM779.014 374.01L777.687 381.436L793.299 385.089L794.626 377.664L779.014 374.01ZM834.922 415.19L828.868 413.773L833.687 386.804L816.815 382.856L811.996 409.825L805.972 408.415L811.885 375.325L817.908 376.735L816.865 382.576C817.05 381.778 817.369 381.065 817.823 380.437C818.28 379.789 818.822 379.268 819.447 378.875C820.096 378.466 820.805 378.2 821.574 378.078C822.347 377.935 823.143 377.96 823.963 378.152L834.78 380.683C835.62 380.879 836.38 381.23 837.058 381.734C837.74 382.217 838.297 382.801 838.73 383.485C839.187 384.153 839.503 384.895 839.677 385.713C839.871 386.535 839.893 387.371 839.741 388.221L834.922 415.19ZM855.845 391.989L852.12 412.837L867.732 416.49L868.731 410.898L874.785 412.314L873.786 417.907C873.634 418.756 873.328 419.515 872.867 420.184C872.426 420.858 871.88 421.41 871.227 421.84C870.598 422.254 869.885 422.54 869.088 422.699C868.295 422.837 867.478 422.808 866.638 422.611L851.026 418.958C850.207 418.766 849.456 418.429 848.774 417.945C848.095 417.441 847.528 416.855 847.071 416.187C846.638 415.503 846.324 414.75 846.13 413.928C845.956 413.11 845.945 412.277 846.096 411.428L849.821 390.579C849.973 389.73 850.269 388.969 850.71 388.295C851.171 387.626 851.716 387.084 852.345 386.67C852.998 386.241 853.721 385.957 854.514 385.818C855.311 385.66 856.119 385.676 856.939 385.868L872.551 389.521C873.391 389.718 874.15 390.068 874.828 390.572C875.51 391.055 876.068 391.639 876.5 392.323C876.957 392.991 877.273 393.734 877.447 394.551C877.642 395.374 877.663 396.209 877.511 397.059L876.512 402.651L870.458 401.235L871.457 395.642L855.845 391.989ZM882.629 440.272L892.403 425.533L884.936 392.419L891.297 393.908L896.786 418.919L910.413 398.381L916.775 399.869L888.653 441.682L882.629 440.272ZM942.824 440.439L938.164 404.875L944.28 406.306L947.567 433.068L959.247 409.808L965.424 411.253L968.188 437.893L980.391 414.756L986.506 416.187L970.022 446.803L963.722 445.329L960.749 419.32L949.124 441.913L942.824 440.439ZM999.199 419.157L993.287 452.247L987.232 450.83L993.145 417.74L999.199 419.157ZM995.114 404.929L1001.78 406.49L1000.64 412.859L993.975 411.299L995.114 404.929ZM1007.71 421.149L1015.7 423.018L1017.52 412.827L1023.58 414.244L1021.76 424.435L1032.51 426.952L1031.42 433.073L1020.66 430.556L1016.94 451.404L1027.69 453.921L1026.6 460.042L1015.84 457.525C1015.02 457.333 1014.27 456.996 1013.59 456.513C1012.91 456.009 1012.35 455.423 1011.89 454.755C1011.44 454.066 1011.11 453.31 1010.92 452.488C1010.74 451.67 1010.73 450.837 1010.88 449.988L1014.61 429.139L1006.62 427.27L1007.71 421.149ZM1065.66 469.182L1059.61 467.766L1064.43 440.796L1047.55 436.848L1042.74 463.818L1036.71 462.408L1044.9 416.579L1050.92 417.989L1047.6 436.569C1047.79 435.771 1048.11 435.058 1048.56 434.43C1049.02 433.782 1049.56 433.261 1050.19 432.868C1050.84 432.459 1051.54 432.193 1052.31 432.071C1053.09 431.928 1053.88 431.952 1054.7 432.144L1065.52 434.676C1066.36 434.872 1067.12 435.222 1067.8 435.726C1068.48 436.21 1069.04 436.793 1069.47 437.477C1069.93 438.145 1070.24 438.888 1070.42 439.706C1070.61 440.528 1070.63 441.364 1070.48 442.213L1065.66 469.182ZM1104.93 458.497C1104.07 458.296 1103.28 457.939 1102.57 457.425C1101.87 456.895 1101.29 456.284 1100.81 455.59C1100.34 454.876 1100.01 454.098 1099.82 453.254C1099.63 452.391 1099.62 451.524 1099.77 450.654L1102.05 437.915C1102.2 437.045 1102.51 436.265 1102.98 435.575C1103.45 434.865 1104.02 434.297 1104.69 433.872C1105.37 433.426 1106.12 433.126 1106.93 432.972C1107.78 432.802 1108.63 432.818 1109.49 433.02L1130.88 438.025C1131.74 438.226 1132.52 438.592 1133.21 439.121C1133.93 439.635 1134.52 440.249 1134.99 440.963C1135.47 441.656 1135.8 442.435 1135.99 443.299C1136.18 444.142 1136.19 444.998 1136.04 445.868L1135.01 451.616L1128.71 450.142L1129.74 444.394L1108.35 439.389L1106.07 452.128L1127.46 457.133C1128.32 457.334 1129.1 457.69 1129.8 458.198C1130.52 458.712 1131.12 459.326 1131.59 460.04C1132.06 460.754 1132.38 461.543 1132.57 462.407C1132.76 463.25 1132.78 464.107 1132.62 464.977L1130.35 477.685C1130.2 478.555 1129.89 479.345 1129.42 480.055C1128.95 480.745 1128.38 481.313 1127.71 481.758C1127.03 482.204 1126.27 482.502 1125.43 482.651C1124.62 482.805 1123.78 482.781 1122.92 482.58L1100.91 477.431C1100.05 477.23 1099.26 476.872 1098.54 476.358C1097.84 475.85 1097.26 475.238 1096.79 474.524C1096.32 473.81 1095.99 473.031 1095.8 472.188C1095.61 471.324 1095.59 470.457 1095.75 469.587L1096.77 463.87L1103.07 465.344L1102.05 471.061L1124.05 476.21L1126.32 463.503L1104.93 458.497ZM1145.89 453.481L1151.91 454.89L1147.09 481.86L1163.96 485.808L1168.78 458.839L1174.83 460.255L1168.92 493.345L1162.87 491.929L1163.87 486.336C1163.67 487.088 1163.33 487.765 1162.86 488.367C1162.39 488.969 1161.84 489.464 1161.19 489.853C1160.57 490.225 1159.88 490.475 1159.14 490.602C1158.39 490.729 1157.62 490.701 1156.84 490.519L1146 487.981C1145.18 487.789 1144.43 487.451 1143.74 486.968C1143.07 486.464 1142.5 485.878 1142.04 485.21C1141.61 484.526 1141.29 483.773 1141.1 482.951C1140.93 482.133 1140.91 481.299 1141.07 480.45L1145.89 453.481ZM1209.05 496.357C1208.89 497.207 1208.59 497.966 1208.13 498.635C1207.69 499.309 1207.14 499.86 1206.49 500.29C1205.86 500.704 1205.14 500.991 1204.35 501.149C1203.56 501.287 1202.74 501.258 1201.9 501.062L1185.03 497.114L1182.64 510.474L1176.62 509.064L1184.92 462.614L1190.94 464.023L1189.94 469.616C1190.14 468.843 1190.48 468.166 1190.94 467.585C1191.41 466.983 1191.96 466.496 1192.58 466.123C1193.21 465.73 1193.89 465.47 1194.64 465.343C1195.41 465.221 1196.19 465.253 1196.99 465.44L1207.81 467.972C1208.65 468.168 1209.41 468.518 1210.09 469.022C1210.77 469.506 1211.33 470.089 1211.76 470.773C1212.22 471.441 1212.53 472.184 1212.71 473.002C1212.9 473.824 1212.92 474.66 1212.77 475.509L1209.05 496.357ZM1202.99 494.941L1206.72 474.092L1189.85 470.144L1186.12 490.993L1202.99 494.941ZM1248.12 497.894L1226.45 492.824L1225.15 500.126L1246.82 505.196L1245.72 511.317L1224.06 506.247C1223.24 506.055 1222.49 505.717 1221.8 505.234C1221.13 504.73 1220.56 504.144 1220.1 503.476C1219.67 502.792 1219.35 502.039 1219.16 501.217C1218.99 500.399 1218.97 499.565 1219.13 498.716L1222.85 477.868C1223 477.019 1223.3 476.257 1223.74 475.583C1224.2 474.914 1224.75 474.373 1225.38 473.959C1226.03 473.529 1226.75 473.245 1227.54 473.107C1228.34 472.948 1229.15 472.965 1229.97 473.156L1245.58 476.81C1246.42 477.006 1247.18 477.357 1247.86 477.861C1248.54 478.344 1249.1 478.927 1249.53 479.611C1249.99 480.279 1250.3 481.022 1250.48 481.84C1250.67 482.662 1250.69 483.498 1250.54 484.347L1248.12 497.894ZM1228.88 479.277L1227.55 486.703L1243.16 490.356L1244.49 482.931L1228.88 479.277ZM1266.68 488.123L1261.86 515.092L1255.83 513.682L1261.75 480.592L1267.77 482.002L1266.73 487.843C1266.91 487.045 1267.23 486.332 1267.68 485.704C1268.14 485.056 1268.68 484.535 1269.31 484.142C1269.96 483.733 1270.67 483.467 1271.44 483.345C1272.21 483.202 1273 483.227 1273.82 483.419L1280.25 484.922C1281.09 485.118 1281.84 485.466 1282.49 485.965C1283.18 486.448 1283.74 487.034 1284.2 487.723C1284.65 488.391 1284.97 489.134 1285.14 489.952C1285.34 490.774 1285.36 491.61 1285.21 492.459L1284.21 498.052L1278.15 496.635L1279.15 491.042L1266.68 488.123ZM1317.32 521.693C1317.17 522.542 1316.86 523.301 1316.4 523.97C1315.96 524.644 1315.41 525.196 1314.76 525.625C1314.13 526.039 1313.42 526.326 1312.62 526.484C1311.85 526.627 1311.04 526.601 1310.2 526.404L1293.94 522.6C1293.12 522.408 1292.37 522.07 1291.69 521.587C1291.01 521.083 1290.44 520.497 1289.99 519.829C1289.55 519.145 1289.24 518.392 1289.05 517.57C1288.87 516.752 1288.86 515.919 1289.01 515.069L1292.74 494.221C1292.89 493.372 1293.19 492.61 1293.63 491.936C1294.09 491.267 1294.63 490.726 1295.26 490.312C1295.91 489.882 1296.64 489.598 1297.43 489.46C1298.23 489.301 1299.03 489.318 1299.85 489.51L1316.11 493.314C1316.95 493.51 1317.7 493.858 1318.36 494.358C1319.04 494.841 1319.6 495.424 1320.03 496.108C1320.49 496.776 1320.8 497.519 1320.98 498.337C1321.17 499.159 1321.19 499.995 1321.04 500.844L1317.32 521.693ZM1298.76 495.631L1295.04 516.479L1311.29 520.283L1315.02 499.435L1298.76 495.631ZM1345.82 534.739L1353.78 490.184L1377.9 495.829C1385.03 497.497 1387.95 501.946 1386.66 509.175L1385.53 515.513C1384.24 522.742 1380.03 525.523 1372.9 523.854L1355.07 519.683L1352.12 536.213L1345.82 534.739ZM1356.21 513.314L1373.7 517.406C1375.38 517.799 1376.65 517.709 1377.52 517.136C1378.39 516.563 1378.98 515.427 1379.28 513.728L1380.31 508.011C1380.61 506.313 1380.46 505.005 1379.85 504.086C1379.25 503.168 1378.11 502.512 1376.43 502.119L1358.94 498.027L1356.21 513.314ZM1418.24 545.309C1418.09 546.158 1417.78 546.917 1417.32 547.586C1416.88 548.26 1416.34 548.812 1415.68 549.242C1415.05 549.656 1414.34 549.942 1413.54 550.101C1412.77 550.244 1411.96 550.217 1411.12 550.02L1394.87 546.216C1394.05 546.024 1393.3 545.687 1392.62 545.204C1391.94 544.7 1391.37 544.114 1390.91 543.446C1390.48 542.762 1390.17 542.008 1389.97 541.186C1389.8 540.368 1389.79 539.535 1389.94 538.686L1393.66 517.837C1393.81 516.988 1394.11 516.227 1394.55 515.553C1395.01 514.884 1395.56 514.342 1396.19 513.928C1396.84 513.499 1397.56 513.215 1398.36 513.077C1399.15 512.918 1399.96 512.934 1400.78 513.126L1417.04 516.93C1417.88 517.127 1418.63 517.475 1419.28 517.974C1419.97 518.457 1420.52 519.041 1420.96 519.725C1421.41 520.393 1421.73 521.136 1421.9 521.953C1422.1 522.776 1422.12 523.611 1421.97 524.461L1418.24 545.309ZM1399.69 519.247L1395.96 540.095L1412.22 543.899L1415.94 523.051L1399.69 519.247ZM1434.05 555.385L1429.39 519.821L1435.51 521.252L1438.79 548.014L1450.47 524.754L1456.65 526.2L1459.42 552.839L1471.62 529.702L1477.73 531.133L1461.25 561.749L1454.95 560.275L1451.98 534.267L1440.35 556.859L1434.05 555.385ZM1508.24 558.762L1486.57 553.692L1485.27 560.993L1506.94 566.063L1505.84 572.184L1484.18 567.114C1483.36 566.922 1482.61 566.585 1481.92 566.102C1481.25 565.598 1480.68 565.012 1480.22 564.344C1479.79 563.66 1479.47 562.906 1479.28 562.084C1479.11 561.266 1479.09 560.433 1479.25 559.584L1482.97 538.735C1483.12 537.886 1483.42 537.125 1483.86 536.451C1484.32 535.782 1484.87 535.24 1485.49 534.827C1486.15 534.397 1486.87 534.113 1487.66 533.975C1488.46 533.816 1489.27 533.832 1490.09 534.024L1505.7 537.677C1506.54 537.874 1507.3 538.224 1507.98 538.728C1508.66 539.211 1509.22 539.795 1509.65 540.479C1510.11 541.147 1510.42 541.89 1510.6 542.707C1510.79 543.53 1510.81 544.366 1510.66 545.215L1508.24 558.762ZM1488.99 540.145L1487.67 547.571L1503.28 551.224L1504.61 543.798L1488.99 540.145ZM1526.8 548.99L1521.98 575.96L1515.95 574.55L1521.87 541.46L1527.89 542.869L1526.85 548.711C1527.03 547.912 1527.35 547.2 1527.8 546.572C1528.26 545.924 1528.8 545.403 1529.43 545.01C1530.08 544.601 1530.79 544.335 1531.56 544.213C1532.33 544.07 1533.12 544.094 1533.94 544.286L1540.37 545.789C1541.21 545.986 1541.96 546.334 1542.61 546.833C1543.3 547.316 1543.86 547.902 1544.32 548.591C1544.77 549.259 1545.09 550.002 1545.26 550.819C1545.46 551.642 1545.48 552.477 1545.33 553.327L1544.33 558.919L1538.27 557.503L1539.27 551.91L1526.8 548.99ZM1568.89 580.561L1570.26 572.887L1555.91 569.528C1555.07 569.332 1554.31 568.992 1553.63 568.508C1552.95 568.004 1552.38 567.418 1551.93 566.75C1551.49 566.066 1551.18 565.313 1550.98 564.491C1550.81 563.673 1550.8 562.84 1550.95 561.991L1552.21 554.938C1552.36 554.088 1552.66 553.327 1553.1 552.653C1553.56 551.984 1554.11 551.443 1554.73 551.029C1555.39 550.599 1556.11 550.315 1556.9 550.177C1557.7 550.018 1558.52 550.037 1559.36 550.233L1578.51 554.714L1577.41 560.834L1558.27 556.354L1557.01 563.407L1571.36 566.766C1572.2 566.962 1572.95 567.31 1573.6 567.809C1574.29 568.293 1574.85 568.879 1575.31 569.567C1575.76 570.235 1576.08 570.978 1576.25 571.796C1576.45 572.618 1576.47 573.454 1576.32 574.303L1574.95 581.978C1574.8 582.827 1574.49 583.586 1574.03 584.255C1573.59 584.929 1573.04 585.481 1572.39 585.91C1571.74 586.32 1571.01 586.604 1570.22 586.762C1569.45 586.905 1568.64 586.878 1567.8 586.682L1547.39 581.907L1548.49 575.786L1568.89 580.561Z" fill="black"/>
<ellipse cx="504.059" cy="211.581" rx="504.059" ry="211.581" transform="matrix(0.976125 0.217209 -0.167511 0.98587 120.645 68.5591)" fill="url(#paint0_radial_615_1114)"/>
<rect width="2171.71" height="210.779" transform="matrix(0.985626 -0.168941 0.129773 0.991544 -190.155 384.5)" fill="#FFB219"/>
<path d="M-20.9549 355.515L-1.4836 352.177L-45.2026 395.789L-64.6739 399.127L-20.9549 355.515Z" fill="black"/>
<path d="M19.3313 348.611L38.8025 345.273L-4.91651 388.885L-24.3878 392.223L19.3313 348.611Z" fill="black"/>
<path d="M59.6164 341.704L79.0877 338.367L35.3686 381.978L15.8974 385.316L59.6164 341.704Z" fill="black"/>
<path d="M99.9021 334.8L119.373 331.463L75.6543 375.075L56.183 378.412L99.9021 334.8Z" fill="black"/>
<path d="M140.187 327.895L159.658 324.558L115.939 368.169L96.4682 371.507L140.187 327.895Z" fill="black"/>
<path d="M180.473 320.99L199.944 317.652L156.225 361.264L136.754 364.602L180.473 320.99Z" fill="black"/>
<path d="M220.758 314.084L240.229 310.747L196.51 354.359L177.039 357.696L220.758 314.084Z" fill="black"/>
<path d="M261.043 307.179L280.514 303.842L236.795 347.454L217.324 350.791L261.043 307.179Z" fill="black"/>
<path d="M301.328 300.274L320.8 296.936L277.081 340.548L257.609 343.886L301.328 300.274Z" fill="black"/>
<path d="M341.614 293.369L361.085 290.031L317.366 333.643L297.895 336.981L341.614 293.369Z" fill="black"/>
<path d="M381.9 286.464L401.371 283.126L357.652 326.738L338.181 330.076L381.9 286.464Z" fill="black"/>
<path d="M422.185 279.559L441.656 276.221L397.937 319.833L378.466 323.17L422.185 279.559Z" fill="black"/>
<path d="M462.469 272.653L481.941 269.316L438.222 312.928L418.75 316.265L462.469 272.653Z" fill="black"/>
<path d="M502.756 265.748L522.227 262.411L478.508 306.022L459.037 309.36L502.756 265.748Z" fill="black"/>
<path d="M543.042 258.843L562.513 255.505L518.794 299.117L499.323 302.455L543.042 258.843Z" fill="black"/>
<path d="M583.326 251.938L602.798 248.601L559.079 292.213L539.607 295.55L583.326 251.938Z" fill="black"/>
<path d="M623.612 245.033L643.083 241.696L599.364 285.308L579.892 288.645L623.612 245.033Z" fill="black"/>
<path d="M663.897 238.128L683.368 234.791L639.649 278.403L620.178 281.74L663.897 238.128Z" fill="black"/>
<path d="M704.183 231.223L723.655 227.886L679.936 271.498L660.464 274.835L704.183 231.223Z" fill="black"/>
<path d="M744.468 224.318L763.94 220.98L720.221 264.592L700.749 267.93L744.468 224.318Z" fill="black"/>
<path d="M784.753 217.413L804.224 214.075L760.505 257.687L741.034 261.024L784.753 217.413Z" fill="black"/>
<path d="M825.039 210.507L844.51 207.17L800.791 250.782L781.32 254.119L825.039 210.507Z" fill="black"/>
<path d="M865.324 203.602L884.796 200.265L841.077 243.876L821.605 247.214L865.324 203.602Z" fill="black"/>
<path d="M905.61 196.697L925.081 193.359L881.362 236.971L861.891 240.309L905.61 196.697Z" fill="black"/>
<path d="M945.895 189.793L965.366 186.455L921.647 230.067L902.176 233.405L945.895 189.793Z" fill="black"/>
<path d="M986.18 182.888L1005.65 179.55L961.932 223.162L942.461 226.5L986.18 182.888Z" fill="black"/>
<path d="M1026.47 175.982L1045.94 172.645L1002.22 216.257L982.747 219.594L1026.47 175.982Z" fill="black"/>
<path d="M1066.75 169.077L1086.22 165.74L1042.5 209.352L1023.03 212.689L1066.75 169.077Z" fill="black"/>
<path d="M1107.04 162.172L1126.51 158.834L1082.79 202.446L1063.32 205.784L1107.04 162.172Z" fill="black"/>
<path d="M1147.32 155.267L1166.79 151.929L1123.07 195.541L1103.6 198.878L1147.32 155.267Z" fill="black"/>
<path d="M1187.61 148.361L1207.08 145.024L1163.36 188.636L1143.89 191.973L1187.61 148.361Z" fill="black"/>
<path d="M1227.89 141.457L1247.37 138.119L1203.65 181.731L1184.17 185.068L1227.89 141.457Z" fill="black"/>
<path d="M1268.18 134.551L1287.65 131.214L1243.93 174.826L1224.46 178.163L1268.18 134.551Z" fill="black"/>
<path d="M1308.46 127.646L1327.93 124.309L1284.22 167.92L1264.74 171.258L1308.46 127.646Z" fill="black"/>
<path d="M1348.75 120.741L1368.22 117.403L1324.5 161.015L1305.03 164.353L1348.75 120.741Z" fill="black"/>
<path d="M1389.03 113.835L1408.51 110.498L1364.79 154.11L1345.32 157.447L1389.03 113.835Z" fill="black"/>
<path d="M1429.32 106.932L1448.79 103.594L1405.07 147.206L1385.6 150.544L1429.32 106.932Z" fill="black"/>
<path d="M1469.61 100.025L1489.08 96.6879L1445.36 140.3L1425.89 143.637L1469.61 100.025Z" fill="black"/>
<path d="M1509.89 93.1211L1529.36 89.7836L1485.64 133.395L1466.17 136.733L1509.89 93.1211Z" fill="black"/>
<path d="M1550.18 86.2158L1569.65 82.8783L1525.93 126.49L1506.46 129.828L1550.18 86.2158Z" fill="black"/>
<path d="M1590.46 79.3105L1609.93 75.9731L1566.21 119.585L1546.74 122.922L1590.46 79.3105Z" fill="black"/>
<path d="M1630.75 72.4053L1650.22 69.0678L1606.5 112.68L1587.03 116.017L1630.75 72.4053Z" fill="black"/>
<path d="M1671.03 65.5005L1690.5 62.163L1646.78 105.775L1627.31 109.112L1671.03 65.5005Z" fill="black"/>
<path d="M1711.32 58.5952L1730.79 55.2577L1687.07 98.8696L1667.6 102.207L1711.32 58.5952Z" fill="black"/>
<path d="M1751.6 51.6904L1771.07 48.353L1727.36 91.9648L1707.88 95.3023L1751.6 51.6904Z" fill="black"/>
<path d="M1791.89 44.7852L1811.36 41.4477L1767.64 85.0595L1748.17 88.397L1791.89 44.7852Z" fill="black"/>
<path d="M1832.17 37.8799L1851.65 34.5424L1807.93 78.1543L1788.45 81.4917L1832.17 37.8799Z" fill="black"/>
<path d="M1872.46 30.9746L1891.93 27.6371L1848.21 71.249L1828.74 74.5865L1872.46 30.9746Z" fill="black"/>
<path d="M1912.74 24.0703L1932.22 20.7328L1888.5 64.3447L1869.02 67.6822L1912.74 24.0703Z" fill="black"/>
<path d="M1953.03 17.1645L1972.5 13.8271L1928.78 57.4389L1909.31 60.7764L1953.03 17.1645Z" fill="black"/>
<path d="M0.765336 521.466L20.2366 518.129L-22.4792 569.406L-41.9505 572.743L0.765336 521.466Z" fill="black"/>
<path d="M41.05 514.562L60.5213 511.224L17.8054 562.501L-1.66585 565.838L41.05 514.562Z" fill="black"/>
<path d="M81.3352 507.656L100.806 504.319L58.0906 555.596L38.6193 558.933L81.3352 507.656Z" fill="black"/>
<path d="M121.621 500.751L141.092 497.414L98.3762 548.69L78.905 552.028L121.621 500.751Z" fill="black"/>
<path d="M161.907 493.846L181.378 490.508L138.662 541.785L119.191 545.123L161.907 493.846Z" fill="black"/>
<path d="M202.192 486.94L221.663 483.603L178.948 534.88L159.476 538.217L202.192 486.94Z" fill="black"/>
<path d="M242.477 480.035L261.949 476.698L219.233 527.975L199.761 531.312L242.477 480.035Z" fill="black"/>
<path d="M282.763 473.13L302.234 469.792L259.518 521.069L240.047 524.407L282.763 473.13Z" fill="black"/>
<path d="M323.048 466.226L342.519 462.889L299.803 514.165L280.332 517.503L323.048 466.226Z" fill="black"/>
<path d="M363.334 459.321L382.805 455.983L340.089 507.26L320.618 510.598L363.334 459.321Z" fill="black"/>
<path d="M403.619 452.416L423.09 449.078L380.374 500.355L360.903 503.692L403.619 452.416Z" fill="black"/>
<path d="M443.904 445.51L463.376 442.173L420.66 493.45L401.189 496.787L443.904 445.51Z" fill="black"/>
<path d="M484.19 438.605L503.661 435.268L460.945 486.544L441.474 489.882L484.19 438.605Z" fill="black"/>
<path d="M524.476 431.7L543.947 428.362L501.231 479.639L481.76 482.977L524.476 431.7Z" fill="black"/>
<path d="M564.761 424.794L584.232 421.457L541.516 472.734L522.045 476.071L564.761 424.794Z" fill="black"/>
<path d="M605.047 417.89L624.518 414.552L581.802 465.829L562.331 469.166L605.047 417.89Z" fill="black"/>
<path d="M645.332 410.985L664.803 407.647L622.087 458.924L602.616 462.262L645.332 410.985Z" fill="black"/>
<path d="M685.616 404.08L705.088 400.742L662.372 452.019L642.901 455.356L685.616 404.08Z" fill="black"/>
<path d="M725.903 397.174L745.374 393.837L702.658 445.114L683.187 448.451L725.903 397.174Z" fill="black"/>
<path d="M766.188 390.269L785.659 386.932L742.943 438.208L723.472 441.546L766.188 390.269Z" fill="black"/>
<path d="M806.473 383.364L825.945 380.026L783.229 431.303L763.757 434.641L806.473 383.364Z" fill="black"/>
<path d="M846.758 376.459L866.229 373.122L823.513 424.398L804.042 427.736L846.758 376.459Z" fill="black"/>
<path d="M887.044 369.554L906.515 366.217L863.8 417.494L844.328 420.831L887.044 369.554Z" fill="black"/>
<path d="M927.329 362.649L946.801 359.311L904.085 410.588L884.613 413.926L927.329 362.649Z" fill="black"/>
<path d="M967.614 355.744L987.086 352.406L944.37 403.683L924.899 407.02L967.614 355.744Z" fill="black"/>
<path d="M1007.9 348.838L1027.37 345.501L984.655 396.778L965.184 400.115L1007.9 348.838Z" fill="black"/>
<path d="M1048.18 341.933L1067.66 338.596L1024.94 389.872L1005.47 393.21L1048.18 341.933Z" fill="black"/>
<path d="M1088.47 335.028L1107.94 331.69L1065.23 382.967L1045.76 386.305L1088.47 335.028Z" fill="black"/>
<path d="M1128.76 328.123L1148.23 324.785L1105.51 376.062L1086.04 379.399L1128.76 328.123Z" fill="black"/>
<path d="M1169.04 321.218L1188.51 317.881L1145.8 369.158L1126.33 372.495L1169.04 321.218Z" fill="black"/>
<path d="M1209.33 314.313L1228.8 310.976L1186.08 362.253L1166.61 365.59L1209.33 314.313Z" fill="black"/>
<path d="M1249.61 307.408L1269.08 304.071L1226.37 355.348L1206.9 358.685L1249.61 307.408Z" fill="black"/>
<path d="M1289.9 300.503L1309.37 297.165L1266.65 348.442L1247.18 351.78L1289.9 300.503Z" fill="black"/>
<path d="M1330.18 293.598L1349.65 290.26L1306.94 341.537L1287.47 344.874L1330.18 293.598Z" fill="black"/>
<path d="M1370.47 286.692L1389.94 283.355L1347.22 334.632L1327.75 337.969L1370.47 286.692Z" fill="black"/>
<path d="M1410.76 279.787L1430.23 276.45L1387.51 327.726L1368.04 331.064L1410.76 279.787Z" fill="black"/>
<path d="M1451.04 272.882L1470.51 269.545L1427.79 320.822L1408.32 324.159L1451.04 272.882Z" fill="black"/>
<path d="M1491.32 265.978L1510.8 262.64L1468.08 313.917L1448.61 317.254L1491.32 265.978Z" fill="black"/>
<path d="M1531.61 259.072L1551.08 255.735L1508.37 307.012L1488.89 310.349L1531.61 259.072Z" fill="black"/>
<path d="M1571.9 252.167L1591.37 248.83L1548.65 300.106L1529.18 303.444L1571.9 252.167Z" fill="black"/>
<path d="M1612.18 245.262L1631.65 241.924L1588.94 293.201L1569.47 296.539L1612.18 245.262Z" fill="black"/>
<path d="M1652.47 238.356L1671.94 235.019L1629.22 286.296L1609.75 289.633L1652.47 238.356Z" fill="black"/>
<path d="M1692.75 231.451L1712.22 228.114L1669.51 279.391L1650.04 282.728L1692.75 231.451Z" fill="black"/>
<path d="M1733.04 224.547L1752.51 221.209L1709.79 272.486L1690.32 275.824L1733.04 224.547Z" fill="black"/>
<path d="M1773.32 217.642L1792.79 214.304L1750.08 265.581L1730.61 268.918L1773.32 217.642Z" fill="black"/>
<path d="M1813.61 210.736L1833.08 207.399L1790.36 258.676L1770.89 262.013L1813.61 210.736Z" fill="black"/>
<path d="M1853.89 203.831L1873.36 200.494L1830.65 251.77L1811.18 255.108L1853.89 203.831Z" fill="black"/>
<path d="M1894.18 196.926L1913.65 193.588L1870.93 244.865L1851.46 248.203L1894.18 196.926Z" fill="black"/>
<path d="M1934.46 190.021L1953.94 186.683L1911.22 237.96L1891.75 241.297L1934.46 190.021Z" fill="black"/>
<path d="M417.656 373.477C417.771 374.354 417.714 375.217 417.486 376.066C417.255 376.895 416.888 377.651 416.384 378.335C415.879 379.019 415.255 379.595 414.511 380.064C413.787 380.53 412.99 380.837 412.119 380.986L386.64 385.353C385.769 385.503 384.918 385.478 384.086 385.279C383.275 385.077 382.541 384.733 381.884 384.249C381.227 383.764 380.682 383.164 380.249 382.449C379.813 381.713 379.538 380.907 379.423 380.031L375.229 347.984C375.114 347.108 375.172 346.255 375.403 345.426C375.631 344.577 375.999 343.82 376.506 343.157C377.01 342.474 377.624 341.899 378.348 341.434C379.089 340.944 379.896 340.624 380.767 340.475L406.245 336.108C407.116 335.959 407.958 335.996 408.772 336.219C409.604 336.418 410.348 336.759 411.006 337.244C411.66 337.708 412.205 338.308 412.641 339.044C413.074 339.759 413.347 340.554 413.462 341.431L417.656 373.477ZM381.606 346.891L385.801 378.938L411.279 374.571L407.085 342.524L381.606 346.891ZM458.658 373.009L452.529 374.06L448.974 346.895L431.895 349.822L435.45 376.987L429.353 378.032L424.991 344.702L431.088 343.657L431.858 349.541C431.793 348.72 431.88 347.926 432.119 347.16C432.355 346.373 432.709 345.672 433.18 345.058C433.669 344.42 434.257 343.892 434.945 343.476C435.63 343.039 436.387 342.749 437.217 342.607L448.167 340.73C449.017 340.584 449.838 340.614 450.628 340.82C451.415 341.005 452.116 341.333 452.729 341.804C453.36 342.25 453.88 342.822 454.289 343.52C454.719 344.214 454.99 344.989 455.102 345.844L458.658 373.009ZM495.121 352.936L473.189 356.695L474.152 364.05L496.084 360.291L496.891 366.456L474.959 370.215C474.129 370.357 473.321 370.336 472.533 370.151C471.743 369.945 471.032 369.619 470.401 369.172C469.788 368.701 469.267 368.119 468.836 367.425C468.427 366.727 468.166 365.95 468.054 365.095L465.306 344.095C465.194 343.24 465.245 342.41 465.457 341.606C465.691 340.798 466.042 340.076 466.51 339.441C466.996 338.782 467.592 338.232 468.298 337.791C469.001 337.329 469.767 337.027 470.596 336.885L486.4 334.176C487.25 334.031 488.07 334.061 488.861 334.266C489.648 334.451 490.349 334.779 490.962 335.25C491.592 335.697 492.113 336.269 492.522 336.967C492.952 337.661 493.223 338.436 493.335 339.291L495.121 352.936ZM471.403 343.05L472.382 350.53L488.186 347.821L487.207 340.342L471.403 343.05ZM524.322 346.875C524.21 346.02 524.261 345.2 524.477 344.417C524.71 343.609 525.06 342.877 525.525 342.221C526.012 341.562 526.608 341.012 527.313 340.571C528.016 340.109 528.782 339.807 529.612 339.665L545.415 336.956L544.572 330.509L524.569 333.938L523.762 327.772L543.765 324.344C544.615 324.198 545.435 324.228 546.226 324.434C547.013 324.619 547.713 324.947 548.326 325.418C548.957 325.864 549.478 326.436 549.887 327.134C550.317 327.828 550.588 328.603 550.7 329.459L554.255 356.623L548.127 357.674L547.39 352.04C547.428 352.823 547.317 353.589 547.054 354.338C546.792 355.087 546.415 355.77 545.923 356.388C545.449 356.981 544.879 357.484 544.212 357.897C543.545 358.31 542.818 358.584 542.03 358.719L532.324 360.382C531.494 360.525 530.685 360.503 529.898 360.318C529.108 360.112 528.397 359.786 527.766 359.34C527.153 358.869 526.631 358.286 526.201 357.592C525.792 356.894 525.531 356.118 525.419 355.262L524.322 346.875ZM531.517 354.217L547.32 351.508L546.222 343.121L530.419 345.83L531.517 354.217ZM593.795 349.846L587.666 350.896L584.111 323.732L567.032 326.659L570.588 353.824L564.49 354.869L560.128 321.539L566.225 320.494L566.995 326.377C566.93 325.557 567.017 324.763 567.256 323.997C567.493 323.21 567.846 322.509 568.317 321.895C568.806 321.257 569.394 320.729 570.082 320.313C570.767 319.875 571.524 319.586 572.354 319.443L583.304 317.566C584.154 317.421 584.975 317.451 585.765 317.657C586.553 317.842 587.253 318.17 587.866 318.64C588.497 319.087 589.017 319.659 589.426 320.357C589.857 321.051 590.128 321.826 590.24 322.681L593.795 349.846ZM600.443 320.932C600.331 320.077 600.382 319.247 600.594 318.443C600.828 317.635 601.179 316.913 601.647 316.278C602.133 315.619 602.729 315.069 603.435 314.628C604.138 314.166 604.904 313.864 605.734 313.722L622.812 310.795L621.133 297.963L627.262 296.913L633.303 343.074L627.175 344.124L626.437 338.491C626.476 339.274 626.364 340.04 626.102 340.789C625.84 341.538 625.462 342.221 624.971 342.838C624.497 343.432 623.927 343.935 623.26 344.348C622.593 344.76 621.865 345.035 621.077 345.17L610.096 347.052C609.266 347.194 608.458 347.173 607.67 346.988C606.88 346.782 606.169 346.456 605.538 346.009C604.925 345.538 604.404 344.956 603.974 344.262C603.564 343.564 603.304 342.787 603.192 341.932L600.443 320.932ZM609.289 340.887L626.368 337.959L623.619 316.96L606.541 319.887L609.289 340.887ZM700.623 324.976C700.738 325.852 700.681 326.715 700.453 327.564C700.222 328.393 699.855 329.15 699.351 329.833C698.846 330.517 698.222 331.093 697.478 331.562C696.754 332.028 695.957 332.335 695.086 332.484L669.607 336.851C668.736 337.001 667.885 336.976 667.053 336.777C666.242 336.575 665.508 336.231 664.851 335.747C664.194 335.262 663.649 334.662 663.216 333.947C662.78 333.211 662.505 332.405 662.39 331.529L658.196 299.482C658.081 298.606 658.139 297.753 658.37 296.924C658.598 296.075 658.966 295.318 659.473 294.655C659.977 293.972 660.591 293.397 661.315 292.932C662.056 292.442 662.863 292.123 663.734 291.973L689.212 287.606C690.083 287.457 690.925 287.494 691.739 287.717C692.571 287.916 693.315 288.257 693.973 288.742C694.627 289.206 695.172 289.806 695.608 290.542C696.04 291.257 696.314 292.052 696.429 292.929L700.623 324.976ZM664.573 298.389L668.768 330.436L694.246 326.069L690.052 294.022L664.573 298.389ZM741.625 324.507L735.496 325.558L731.941 298.393L714.862 301.32L718.417 328.485L712.32 329.53L707.958 296.2L714.055 295.155L714.825 301.039C714.76 300.218 714.847 299.424 715.086 298.658C715.322 297.871 715.676 297.17 716.147 296.556C716.636 295.918 717.224 295.391 717.912 294.974C718.597 294.537 719.354 294.247 720.184 294.105L731.134 292.228C731.984 292.082 732.804 292.112 733.595 292.318C734.382 292.503 735.083 292.831 735.696 293.302C736.327 293.748 736.847 294.32 737.256 295.018C737.686 295.712 737.957 296.487 738.069 297.343L741.625 324.507ZM751.884 275.552L757.926 321.713L751.828 322.758L745.787 276.597L751.884 275.552ZM772.13 333.037L776.913 315.387L759.941 287.29L766.38 286.186L779.057 307.468L785.73 282.87L792.17 281.766L778.228 331.992L772.13 333.037ZM817.412 265.632L840.489 307.561L834.111 308.655L828.809 299.004L808.681 302.454L806.082 313.459L799.705 314.552L811.034 266.725L817.412 265.632ZM810.268 295.623L825.512 293.01L815.332 274.532L810.268 295.623ZM843.964 279.192C843.852 278.336 843.903 277.506 844.115 276.702C844.349 275.894 844.7 275.173 845.168 274.538C845.654 273.878 846.25 273.328 846.956 272.887C847.659 272.425 848.425 272.123 849.255 271.981L860.236 270.099C861.045 269.96 861.833 269.985 862.599 270.174C863.364 270.342 864.051 270.65 864.661 271.1C865.289 271.526 865.817 272.076 866.244 272.749C866.69 273.398 866.976 274.127 867.103 274.937L866.333 269.054L872.462 268.003L877.778 308.625C877.89 309.481 877.83 310.312 877.596 311.12C877.383 311.925 877.032 312.646 876.543 313.285C876.078 313.94 875.492 314.489 874.787 314.93C874.084 315.391 873.307 315.695 872.457 315.841L853.107 319.158L852.3 312.992L871.65 309.676L870.528 301.101L853.449 304.028C852.619 304.17 851.811 304.149 851.023 303.964C850.233 303.758 849.522 303.432 848.891 302.985C848.278 302.515 847.757 301.932 847.327 301.238C846.917 300.54 846.657 299.763 846.545 298.908L843.964 279.192ZM869.721 294.935L867.14 275.219L850.061 278.147L852.642 297.863L869.721 294.935ZM913.287 281.26L891.356 285.02L892.318 292.374L914.25 288.615L915.057 294.78L893.125 298.539C892.295 298.681 891.487 298.66 890.699 298.475C889.909 298.269 889.198 297.943 888.567 297.497C887.954 297.026 887.433 296.443 887.003 295.749C886.593 295.051 886.333 294.275 886.221 293.419L883.472 272.42C883.36 271.564 883.411 270.734 883.624 269.93C883.857 269.122 884.208 268.401 884.676 267.766C885.162 267.106 885.758 266.556 886.464 266.115C887.167 265.654 887.933 265.352 888.763 265.209L904.566 262.501C905.416 262.355 906.237 262.385 907.027 262.591C907.815 262.776 908.515 263.104 909.128 263.575C909.759 264.021 910.279 264.593 910.688 265.291C911.119 265.985 911.39 266.76 911.502 267.615L913.287 281.26ZM889.57 271.375L890.549 278.854L906.352 276.146L905.373 268.666L889.57 271.375ZM954.596 288.003L948.468 289.053L944.913 261.889L927.834 264.816L931.389 291.981L925.292 293.026L920.929 259.696L927.027 258.651L927.797 264.534C927.732 263.714 927.819 262.92 928.058 262.154C928.294 261.367 928.648 260.666 929.119 260.052C929.608 259.414 930.196 258.886 930.884 258.47C931.568 258.032 932.326 257.742 933.155 257.6L944.106 255.723C944.956 255.578 945.776 255.608 946.567 255.813C947.354 255.998 948.054 256.326 948.667 256.797C949.298 257.244 949.818 257.816 950.228 258.514C950.658 259.208 950.929 259.983 951.041 260.838L954.596 288.003ZM967.342 258.044L970.09 279.043L985.894 276.335L985.157 270.702L991.285 269.651L992.022 275.284C992.134 276.14 992.073 276.971 991.84 277.779C991.627 278.584 991.278 279.316 990.791 279.975C990.323 280.61 989.738 281.158 989.035 281.62C988.329 282.061 987.551 282.354 986.701 282.5L970.897 285.209C970.068 285.351 969.259 285.33 968.472 285.145C967.681 284.939 966.971 284.613 966.34 284.166C965.727 283.695 965.205 283.113 964.775 282.418C964.366 281.721 964.105 280.944 963.993 280.089L961.245 259.089C961.133 258.234 961.183 257.404 961.396 256.599C961.629 255.791 961.98 255.07 962.449 254.435C962.935 253.776 963.531 253.226 964.236 252.785C964.939 252.323 965.706 252.021 966.535 251.879L982.338 249.17C983.189 249.024 984.009 249.054 984.799 249.26C985.587 249.445 986.287 249.773 986.9 250.244C987.531 250.691 988.051 251.263 988.461 251.96C988.891 252.655 989.162 253.429 989.274 254.285L990.011 259.918L983.883 260.969L983.145 255.335L967.342 258.044ZM1007.07 292.768L1011.85 275.118L994.875 247.021L1001.31 245.917L1013.99 267.199L1020.66 242.601L1027.1 241.497L1013.16 291.723L1007.07 292.768ZM1063.82 269.281L1048.76 237.786L1054.95 236.725L1066.08 260.511L1070.1 234.128L1076.35 233.056L1086.95 256.933L1091.5 230.459L1097.69 229.398L1091.35 264.562L1084.97 265.655L1074.37 242.451L1070.2 268.188L1063.82 269.281ZM1110.54 227.196L1114.9 260.526L1108.77 261.576L1104.41 228.246L1110.54 227.196ZM1102.42 215.468L1109.17 214.311L1110.01 220.727L1103.26 221.884L1102.42 215.468ZM1119.16 225.719L1127.24 224.333L1125.9 214.068L1132.03 213.017L1133.37 223.282L1144.26 221.416L1145.07 227.581L1134.18 229.447L1136.93 250.447L1147.82 248.581L1148.62 254.746L1137.73 256.612C1136.91 256.754 1136.1 256.733 1135.31 256.548C1134.52 256.342 1133.81 256.016 1133.18 255.569C1132.54 255.102 1132.01 254.521 1131.58 253.827C1131.17 253.129 1130.91 252.353 1130.8 251.497L1128.05 230.498L1119.96 231.884L1119.16 225.719ZM1188.16 247.968L1182.03 249.019L1178.48 221.854L1161.4 224.782L1164.96 251.946L1158.86 252.991L1152.82 206.83L1158.91 205.785L1161.36 224.5C1161.3 223.679 1161.38 222.886 1161.62 222.119C1161.86 221.332 1162.21 220.632 1162.68 220.018C1163.17 219.379 1163.76 218.852 1164.45 218.435C1165.13 217.998 1165.89 217.708 1166.72 217.566L1177.67 215.689C1178.52 215.543 1179.34 215.573 1180.13 215.779C1180.92 215.964 1181.62 216.292 1182.23 216.763C1182.86 217.209 1183.38 217.782 1183.79 218.479C1184.22 219.174 1184.5 219.948 1184.61 220.804L1188.16 247.968ZM1221.95 222.53C1221.08 222.68 1220.23 222.655 1219.4 222.456C1218.58 222.233 1217.85 221.889 1217.19 221.426C1216.54 220.941 1215.99 220.341 1215.56 219.626C1215.12 218.89 1214.85 218.084 1214.73 217.208L1213.06 204.376C1212.94 203.5 1213 202.648 1213.23 201.819C1213.46 200.969 1213.82 200.213 1214.33 199.55C1214.84 198.866 1215.45 198.292 1216.17 197.826C1216.92 197.337 1217.72 197.017 1218.59 196.868L1240.24 193.157C1241.12 193.007 1241.96 193.044 1242.77 193.267C1243.6 193.466 1244.35 193.808 1245.01 194.292C1245.66 194.756 1246.2 195.356 1246.64 196.092C1247.07 196.807 1247.35 197.603 1247.46 198.479L1248.22 204.269L1241.84 205.362L1241.08 199.572L1219.43 203.283L1221.11 216.115L1242.76 212.403C1243.63 212.254 1244.48 212.281 1245.29 212.483C1246.12 212.682 1246.86 213.023 1247.52 213.508C1248.18 213.993 1248.72 214.603 1249.16 215.339C1249.59 216.054 1249.87 216.85 1249.98 217.726L1251.66 230.526C1251.77 231.402 1251.71 232.265 1251.49 233.115C1251.25 233.944 1250.89 234.7 1250.38 235.384C1249.88 236.067 1249.25 236.644 1248.51 237.113C1247.79 237.578 1246.99 237.885 1246.12 238.035L1223.84 241.852C1222.97 242.002 1222.12 241.977 1221.29 241.778C1220.48 241.576 1219.74 241.233 1219.09 240.748C1218.43 240.263 1217.89 239.663 1217.45 238.948C1217.02 238.212 1216.74 237.406 1216.63 236.53L1215.87 230.772L1222.25 229.678L1223 235.437L1245.28 231.619L1243.6 218.819L1221.95 222.53ZM1259.02 201.745L1265.12 200.7L1268.67 227.865L1285.75 224.937L1282.2 197.773L1288.33 196.722L1292.69 230.052L1286.56 231.103L1285.82 225.469C1285.86 226.252 1285.75 227.018 1285.49 227.767C1285.22 228.516 1284.85 229.199 1284.36 229.817C1283.88 230.41 1283.31 230.913 1282.64 231.326C1281.98 231.739 1281.25 232.013 1280.46 232.148L1269.48 234.03C1268.65 234.172 1267.84 234.151 1267.06 233.966C1266.26 233.76 1265.55 233.434 1264.92 232.987C1264.31 232.517 1263.79 231.934 1263.36 231.24C1262.95 230.542 1262.69 229.765 1262.58 228.91L1259.02 201.745ZM1331.39 217.115C1331.5 217.97 1331.44 218.802 1331.21 219.61C1330.99 220.415 1330.65 221.146 1330.16 221.806C1329.69 222.441 1329.11 222.989 1328.4 223.451C1327.7 223.892 1326.92 224.185 1326.07 224.331L1308.99 227.258L1310.75 240.715L1304.65 241.76L1298.53 194.973L1304.63 193.928L1305.36 199.561C1305.32 198.758 1305.43 197.992 1305.7 197.264C1305.96 196.515 1306.33 195.844 1306.8 195.251C1307.28 194.637 1307.84 194.123 1308.51 193.71C1309.2 193.294 1309.95 193.016 1310.76 192.878L1321.71 191.001C1322.56 190.855 1323.38 190.885 1324.17 191.091C1324.95 191.276 1325.65 191.604 1326.27 192.075C1326.9 192.521 1327.42 193.093 1327.83 193.791C1328.26 194.485 1328.53 195.26 1328.64 196.116L1331.39 217.115ZM1325.26 218.165L1322.51 197.166L1305.43 200.093L1308.18 221.093L1325.26 218.165ZM1368.66 203.207L1346.73 206.966L1347.69 214.321L1369.62 210.562L1370.43 216.727L1348.5 220.486C1347.67 220.628 1346.86 220.607 1346.07 220.422C1345.28 220.216 1344.57 219.89 1343.94 219.444C1343.33 218.973 1342.81 218.39 1342.38 217.696C1341.97 216.998 1341.71 216.222 1341.59 215.366L1338.85 194.367C1338.73 193.511 1338.78 192.681 1339 191.877C1339.23 191.069 1339.58 190.348 1340.05 189.713C1340.54 189.053 1341.13 188.503 1341.84 188.062C1342.54 187.6 1343.31 187.298 1344.14 187.156L1359.94 184.448C1360.79 184.302 1361.61 184.332 1362.4 184.538C1363.19 184.723 1363.89 185.051 1364.5 185.521C1365.13 185.968 1365.65 186.54 1366.06 187.238C1366.49 187.932 1366.76 188.707 1366.87 189.562L1368.66 203.207ZM1344.94 193.322L1345.92 200.801L1361.72 198.092L1360.75 190.613L1344.94 193.322ZM1383.21 186.763L1386.76 213.928L1380.66 214.973L1376.3 181.643L1382.4 180.598L1383.17 186.481C1383.1 185.66 1383.19 184.867 1383.43 184.101C1383.67 183.314 1384.02 182.613 1384.49 181.999C1384.98 181.361 1385.57 180.833 1386.26 180.417C1386.94 179.979 1387.7 179.689 1388.53 179.547L1395.03 178.433C1395.88 178.287 1396.69 178.319 1397.46 178.528C1398.25 178.713 1398.96 179.039 1399.59 179.507C1400.22 179.953 1400.74 180.525 1401.15 181.223C1401.58 181.917 1401.85 182.692 1401.97 183.548L1402.7 189.181L1396.57 190.231L1395.84 184.598L1383.21 186.763ZM1440.99 198.33C1441.1 199.185 1441.04 200.017 1440.8 200.825C1440.59 201.629 1440.24 202.361 1439.76 203.02C1439.29 203.655 1438.7 204.204 1438 204.665C1437.31 205.103 1436.55 205.394 1435.7 205.54L1419.24 208.361C1418.41 208.503 1417.6 208.482 1416.81 208.297C1416.02 208.091 1415.31 207.765 1414.68 207.318C1414.07 206.847 1413.55 206.265 1413.12 205.57C1412.71 204.873 1412.45 204.096 1412.34 203.241L1409.59 182.241C1409.47 181.386 1409.53 180.556 1409.74 179.751C1409.97 178.943 1410.32 178.222 1410.79 177.587C1411.28 176.928 1411.87 176.378 1412.58 175.937C1413.28 175.475 1414.05 175.173 1414.88 175.031L1431.33 172.21C1432.18 172.064 1432.99 172.096 1433.76 172.306C1434.55 172.491 1435.25 172.818 1435.86 173.289C1436.5 173.736 1437.02 174.308 1437.42 175.006C1437.86 175.7 1438.13 176.475 1438.24 177.33L1440.99 198.33ZM1415.68 181.196L1418.43 202.195L1434.89 199.375L1432.14 178.375L1415.68 181.196ZM1471.75 199.36L1465.88 154.482L1490.3 150.296C1497.52 149.059 1501.6 152.081 1502.55 159.363L1503.39 165.747C1504.34 173.029 1501.21 177.288 1493.99 178.525L1475.95 181.618L1478.13 198.267L1471.75 199.36ZM1475.11 175.202L1492.81 172.168C1494.51 171.876 1495.69 171.291 1496.33 170.412C1496.98 169.533 1497.19 168.238 1496.97 166.527L1496.22 160.769C1495.99 159.058 1495.46 157.891 1494.61 157.268C1493.77 156.645 1492.5 156.479 1490.8 156.77L1473.09 159.804L1475.11 175.202ZM1543.15 180.819C1543.26 181.674 1543.2 182.506 1542.97 183.314C1542.75 184.118 1542.4 184.85 1541.92 185.509C1541.45 186.144 1540.86 186.693 1540.16 187.154C1539.48 187.592 1538.71 187.883 1537.86 188.029L1521.4 190.85C1520.57 190.992 1519.76 190.971 1518.98 190.786C1518.19 190.58 1517.47 190.254 1516.84 189.807C1516.23 189.336 1515.71 188.754 1515.28 188.059C1514.87 187.362 1514.61 186.585 1514.5 185.73L1511.75 164.73C1511.64 163.875 1511.69 163.045 1511.9 162.24C1512.13 161.432 1512.48 160.711 1512.95 160.076C1513.44 159.417 1514.03 158.867 1514.74 158.426C1515.44 157.964 1516.21 157.662 1517.04 157.52L1533.5 154.699C1534.35 154.553 1535.16 154.585 1535.93 154.795C1536.71 154.98 1537.41 155.307 1538.03 155.778C1538.66 156.225 1539.18 156.797 1539.59 157.495C1540.02 158.189 1540.29 158.964 1540.4 159.819L1543.15 180.819ZM1517.85 163.685L1520.59 184.684L1537.05 181.864L1534.3 160.864L1517.85 163.685ZM1561.07 184.051L1546 152.556L1552.19 151.494L1563.32 175.281L1567.34 148.898L1573.6 147.826L1584.19 171.703L1588.75 145.229L1594.94 144.168L1588.6 179.332L1582.22 180.425L1571.61 157.221L1567.44 182.958L1561.07 184.051ZM1631.97 158.075L1610.03 161.835L1611 169.189L1632.93 165.43L1633.74 171.595L1611.8 175.354C1610.97 175.496 1610.17 175.475 1609.38 175.29C1608.59 175.084 1607.88 174.758 1607.25 174.312C1606.63 173.841 1606.11 173.258 1605.68 172.564C1605.27 171.866 1605.01 171.09 1604.9 170.234L1602.15 149.235C1602.04 148.379 1602.09 147.549 1602.3 146.745C1602.54 145.937 1602.89 145.216 1603.35 144.581C1603.84 143.921 1604.44 143.371 1605.14 142.93C1605.85 142.469 1606.61 142.167 1607.44 142.024L1623.24 139.316C1624.1 139.17 1624.92 139.2 1625.71 139.406C1626.49 139.591 1627.19 139.919 1627.81 140.39C1628.44 140.836 1628.96 141.408 1629.37 142.106C1629.8 142.8 1630.07 143.575 1630.18 144.43L1631.97 158.075ZM1608.25 148.19L1609.23 155.669L1625.03 152.961L1624.05 145.481L1608.25 148.19ZM1646.51 141.631L1650.07 168.796L1643.97 169.841L1639.61 136.511L1645.71 135.466L1646.48 141.349C1646.41 140.529 1646.5 139.735 1646.74 138.969C1646.97 138.182 1647.33 137.481 1647.8 136.867C1648.29 136.229 1648.87 135.701 1649.56 135.285C1650.25 134.847 1651 134.557 1651.83 134.415L1658.34 133.301C1659.19 133.155 1660 133.187 1660.77 133.396C1661.55 133.581 1662.26 133.907 1662.9 134.375C1663.53 134.821 1664.05 135.393 1664.46 136.091C1664.89 136.785 1665.16 137.56 1665.27 138.416L1666.01 144.049L1659.88 145.099L1659.14 139.466L1646.51 141.631ZM1695.64 154.68L1694.63 146.95L1680.1 149.44C1679.25 149.586 1678.44 149.566 1677.65 149.381C1676.86 149.175 1676.15 148.849 1675.52 148.403C1674.9 147.932 1674.38 147.349 1673.95 146.655C1673.54 145.957 1673.28 145.181 1673.17 144.325L1672.24 137.221C1672.13 136.366 1672.18 135.536 1672.39 134.731C1672.62 133.923 1672.98 133.202 1673.44 132.567C1673.93 131.908 1674.53 131.358 1675.23 130.917C1675.93 130.455 1676.71 130.151 1677.56 130.006L1696.94 126.684L1697.75 132.849L1678.37 136.171L1679.3 143.275L1693.83 140.785C1694.68 140.639 1695.49 140.671 1696.26 140.88C1697.04 141.065 1697.75 141.391 1698.39 141.859C1699.02 142.305 1699.54 142.877 1699.95 143.575C1700.38 144.269 1700.65 145.044 1700.76 145.9L1701.77 153.63C1701.88 154.485 1701.82 155.317 1701.59 156.125C1701.38 156.929 1701.03 157.661 1700.54 158.32C1700.05 158.959 1699.46 159.509 1698.75 159.971C1698.07 160.408 1697.3 160.7 1696.45 160.845L1675.79 164.386L1674.99 158.221L1695.64 154.68Z" fill="black"/>
<defs>
<radialGradient id="paint0_radial_615_1114" cx="0" cy="0" r="1" gradientUnits="userSpaceOnUse" gradientTransform="translate(504.059 211.581) rotate(90) scale(211.581 504.059)">
<stop stop-opacity="0.5"/>
<stop offset="1" stop-opacity="0"/>
</radialGradient>
</defs>
</svg>
